<?xml version="1.0" standalone="no"?>
<!DOCTYPE svg PUBLIC "-//W3C//DTD SVG 20010904//EN"
 "http://www.w3.org/TR/2001/REC-SVG-20010904/DTD/svg10.dtd">
<svg version="1.0" xmlns="http://www.w3.org/2000/svg"
 width="960.000000pt" height="960.000000pt" viewBox="0 0 960.000000 960.000000"
 preserveAspectRatio="xMidYMid meet">
<metadata>
Created by potrace 1.14, written by Peter Selinger 2001-2017
</metadata>
<g transform="translate(0.000000,960.000000) scale(0.100000,-0.100000)"
fill="#000000" stroke="none">
<path d="M0 8080 c0 -1047 3 -1520 10 -1520 6 0 20 -9 32 -20 25 -23 118 -29
118 -8 0 6 3 8 7 5 3 -4 12 1 19 11 11 15 14 13 28 -20 20 -46 20 -48 -1 -48
-13 0 -14 -3 -5 -12 9 -9 4 -18 -20 -40 -26 -23 -28 -29 -15 -34 9 -3 31 -1
48 5 24 8 37 7 58 -3 14 -8 52 -19 84 -25 31 -6 66 -15 76 -21 11 -5 44 -10
73 -10 l53 0 -38 22 c-21 12 -35 28 -33 34 3 7 -2 18 -10 25 -40 33 -33 94 14
105 17 5 22 13 22 41 0 59 23 33 54 -63 34 -105 47 -134 57 -134 11 0 0 107
-17 162 -8 26 -14 54 -14 62 0 8 -9 31 -20 51 -11 19 -16 35 -12 36 4 1 25 3
47 5 22 2 58 10 80 17 39 14 35 14 -97 19 -75 2 -143 9 -150 15 -7 6 -53 16
-103 22 -61 8 -94 17 -102 28 -28 37 -6 188 35 240 17 22 18 22 67 6 28 -9 88
-20 135 -24 47 -4 108 -10 136 -14 36 -5 54 -4 59 5 4 7 3 15 -3 19 -6 4 -8
12 -4 18 12 19 57 19 86 0 22 -15 30 -16 42 -6 12 10 15 10 12 -2 -2 -10 9
-15 35 -17 30 -3 37 -7 33 -19 -6 -14 -4 -14 16 -1 43 29 45 44 11 86 -17 21
-37 59 -43 83 -6 24 -18 54 -26 66 -16 25 -14 27 41 39 34 7 25 10 -70 15 -60
3 -137 14 -170 23 -37 10 -122 19 -220 22 -88 4 -169 10 -181 15 -21 7 -23 13
-41 127 -11 66 14 72 317 73 153 0 210 4 223 13 16 12 16 14 1 20 -8 3 -31 6
-49 6 -21 0 -39 7 -47 18 -7 10 -25 27 -40 36 -16 10 -28 22 -28 27 0 12 26
11 48 0 9 -5 47 -17 83 -25 39 -9 96 -34 142 -61 66 -40 90 -48 188 -65 62
-11 144 -29 182 -41 61 -19 68 -24 63 -43 -3 -11 -8 -40 -12 -63 -7 -44 -54
-109 -69 -95 -4 4 -4 0 1 -8 5 -8 9 -51 9 -95 1 -157 25 -245 63 -230 10 3 12
0 8 -10 -8 -21 3 -45 20 -45 8 0 14 -9 14 -19 0 -11 5 -23 11 -27 6 -3 17 -20
25 -38 8 -18 13 -24 14 -13 0 25 17 21 24 -5 10 -37 7 -58 -8 -58 -16 0 -30
-59 -20 -84 4 -9 0 -24 -8 -34 -9 -9 -18 -30 -22 -46 -6 -23 -9 -27 -16 -16
-6 9 -5 19 0 24 11 11 12 112 1 139 -7 18 -8 18 -21 1 -12 -13 -15 -44 -13
-129 2 -110 1 -113 -23 -124 -21 -9 -23 -13 -12 -31 7 -11 22 -20 33 -20 11 0
27 -4 35 -10 19 -12 40 6 40 36 0 28 16 40 34 25 14 -12 26 -5 26 16 0 7 -11
13 -25 13 -16 0 -25 6 -25 15 0 18 12 19 27 4 7 -7 16 -1 29 20 23 36 21 121
-3 121 -10 0 -13 10 -11 38 3 35 5 37 39 40 l36 3 -12 34 c-6 19 -14 38 -18
41 -4 4 -2 13 5 21 7 9 8 20 1 36 -22 47 -8 431 15 446 27 18 48 132 22 116
-6 -3 -10 1 -10 9 0 8 5 18 11 22 21 13 232 11 319 -3 113 -17 115 -17 90 9
-25 27 -25 31 0 53 11 10 21 28 21 39 1 12 5 3 9 -18 13 -66 -4 -309 -33 -471
-16 -90 -23 -84 -30 23 -2 40 -10 79 -16 85 -6 6 -11 43 -11 82 l0 72 -37 17
c-29 12 -65 16 -155 14 -64 -1 -115 -5 -112 -10 3 -5 22 -16 43 -24 25 -10 41
-25 50 -47 33 -80 42 -113 47 -165 6 -60 28 -176 44 -228 6 -17 10 -35 10 -41
0 -14 -43 -63 -55 -63 -6 0 -15 -10 -20 -22 -6 -13 -20 -24 -32 -26 -22 -3
-23 -8 -23 -95 0 -81 2 -94 20 -105 11 -7 20 -19 20 -27 0 -8 9 -15 20 -15 29
0 29 -69 0 -77 -16 -4 -20 -14 -20 -44 0 -32 3 -39 20 -39 17 0 20 -7 20 -40
0 -27 -4 -39 -12 -37 -10 1 -13 -22 -14 -86 -2 -76 -5 -92 -24 -112 -18 -20
-22 -34 -20 -82 1 -32 3 -101 4 -153 1 -52 6 -106 10 -119 5 -16 4 -26 -4 -31
-20 -12 32 -55 85 -70 65 -18 81 -1 90 93 10 107 21 141 55 167 20 15 27 26
19 30 -8 5 -6 15 6 34 14 21 20 24 32 15 8 -7 11 -19 8 -27 -9 -24 14 -32 92
-32 48 0 73 4 76 13 6 16 -4 110 -13 120 -4 4 -47 14 -95 22 -49 8 -93 19 -99
25 -12 12 -10 198 2 271 7 43 8 44 50 47 27 2 45 9 49 18 10 26 -15 64 -52 80
-20 8 -39 25 -44 37 -14 37 -28 228 -22 297 7 75 14 90 42 90 26 0 38 -33 45
-128 3 -42 17 -122 30 -176 14 -55 26 -122 28 -150 1 -28 12 -69 23 -91 12
-23 24 -59 28 -80 4 -22 16 -70 26 -107 11 -37 21 -89 23 -117 2 -34 12 -62
28 -83 46 -62 73 -223 71 -423 -2 -146 10 -280 27 -290 4 -3 6 -14 3 -25 -6
-23 -33 -27 -33 -5 0 8 -4 15 -9 15 -5 0 -12 8 -15 18 -6 17 -65 56 -73 48 -2
-2 4 -21 15 -43 20 -38 26 -73 24 -125 -2 -28 -19 -50 -59 -77 -12 -8 -23 -30
-27 -52 -3 -22 -11 -39 -17 -39 -6 0 -9 -6 -6 -12 6 -18 -21 -68 -37 -68 -8 0
-17 -11 -20 -25 -4 -14 -11 -25 -16 -25 -6 0 -10 -7 -10 -15 0 -8 -8 -15 -17
-16 -11 0 -13 -3 -5 -6 17 -7 16 -73 -2 -73 -13 0 -28 72 -26 125 0 11 2 72 3
135 4 152 5 162 16 155 5 -3 17 29 26 71 17 76 16 124 -5 214 -5 25 -14 67
-19 93 -6 35 -18 58 -45 86 -20 20 -36 43 -36 51 0 13 -2 13 -9 1 -5 -8 -5
-27 0 -45 5 -17 6 -50 3 -74 -7 -49 9 -224 33 -352 16 -89 15 -140 -7 -440
-13 -169 -9 -344 9 -402 6 -20 20 -47 30 -59 18 -23 18 -21 14 87 -2 60 -5
145 -6 188 -1 53 -6 81 -14 83 -15 5 -16 67 -3 98 6 15 9 8 10 -30 1 -38 4
-45 10 -30 6 14 9 0 9 -47 l1 -66 40 -19 c22 -10 40 -23 40 -28 0 -6 14 -21
31 -35 43 -35 57 -49 67 -67 10 -17 74 -32 145 -33 46 0 49 -2 63 -36 23 -54
16 -103 -20 -142 -22 -23 -27 -35 -19 -43 16 -16 53 6 53 31 0 11 6 20 13 20
22 0 37 -23 37 -57 0 -17 5 -54 10 -81 8 -36 8 -58 -2 -87 -12 -37 -16 -40
-53 -42 -68 -4 -85 -11 -85 -37 0 -14 9 -27 23 -34 l22 -11 -24 -7 c-23 -7
-24 -8 -5 -15 15 -6 14 -8 -11 -8 -26 -1 -28 -2 -14 -17 22 -21 117 -29 163
-14 21 6 40 9 43 6 3 -3 16 -87 29 -187 24 -185 36 -248 30 -149 -2 30 -11
161 -19 290 -9 129 -18 305 -22 390 -4 85 -10 169 -15 185 -5 17 -14 66 -20
110 -6 44 -15 107 -20 140 -5 33 -14 114 -19 180 -14 161 -39 375 -53 455 -6
36 -13 137 -14 225 -2 88 -8 199 -14 246 -7 59 -7 134 0 235 6 82 12 235 12
339 1 122 5 192 12 197 6 4 9 25 7 48 -1 23 2 47 8 54 6 7 13 35 15 62 3 27
10 69 16 94 6 24 9 53 7 62 -3 10 -1 18 3 18 5 0 12 17 16 38 4 20 24 62 45
92 22 31 39 58 39 62 0 3 23 29 50 57 28 28 50 56 50 60 0 5 6 11 14 14 8 3
22 22 31 41 13 26 24 36 41 36 15 0 22 5 18 13 -2 7 5 22 17 33 22 19 22 19
15 -3 -10 -32 2 -28 48 12 22 19 43 32 48 29 4 -3 8 -1 8 4 0 5 30 38 67 73
36 35 81 78 99 95 18 18 37 33 43 35 5 2 34 28 64 57 31 28 59 52 63 52 3 0
16 10 28 23 34 34 98 90 133 116 27 21 52 62 34 59 -3 -1 -14 2 -23 6 -21 9
-25 31 -4 23 7 -3 30 12 52 34 21 21 42 39 47 39 6 0 22 12 38 28 40 39 57 52
68 52 5 0 11 4 13 9 5 13 129 91 145 91 12 0 12 2 -1 15 -8 8 -21 15 -29 15
-8 0 -19 6 -25 13 -8 9 -3 18 21 34 47 32 81 38 98 17 13 -16 11 -17 -18 -12
-27 4 -30 2 -21 -9 8 -10 8 -17 0 -25 -15 -15 -15 -28 -2 -28 6 0 10 6 10 14
0 8 9 17 19 21 11 3 23 15 26 26 4 10 14 19 24 19 10 0 24 7 31 14 6 8 56 37
111 65 54 27 115 62 134 77 40 30 37 54 -3 28 -52 -35 -154 -84 -172 -84 -10
0 -21 -4 -25 -10 -8 -13 -73 -30 -91 -23 -13 5 -13 8 2 24 9 10 29 21 44 24
15 3 42 17 61 31 18 13 39 24 46 24 7 0 22 6 33 12 19 12 19 13 0 23 -19 10
-18 11 10 22 17 6 30 7 30 2 0 -5 7 -9 15 -9 8 0 15 6 15 13 0 41 105 67 157
40 34 -18 108 -10 171 17 23 10 42 17 42 14 0 -3 14 4 30 16 17 12 36 20 43
17 6 -2 25 2 40 10 16 8 68 17 115 19 50 3 90 11 94 17 5 9 10 9 20 -1 6 -6
23 -12 38 -12 44 -1 146 -25 164 -40 10 -8 28 -24 39 -36 48 -45 185 -66 276
-42 35 10 61 15 57 11 -4 -4 15 -12 41 -19 26 -7 50 -10 52 -8 2 2 -1 4 -7 4
-7 0 -12 9 -12 20 0 22 24 27 37 8 4 -7 15 -14 23 -15 8 -1 27 -5 43 -9 16 -4
27 -2 27 4 0 6 9 8 20 5 11 -3 18 -9 15 -13 -6 -9 54 -20 113 -20 28 0 45 -5
48 -15 4 -8 10 -13 14 -10 5 3 14 -1 22 -8 26 -26 45 -33 135 -49 5 -1 14 -8
21 -15 7 -7 22 -13 33 -13 10 0 19 -7 19 -15 0 -8 12 -18 28 -21 15 -4 43 -21
62 -38 19 -18 60 -45 90 -61 30 -15 71 -41 91 -57 20 -15 41 -28 45 -28 17 -1
84 -68 84 -85 0 -15 -7 -17 -45 -12 -36 5 -45 4 -45 -8 0 -8 12 -18 28 -21 31
-8 83 -43 130 -91 18 -18 37 -33 41 -33 5 0 20 -25 35 -55 14 -30 42 -72 63
-93 21 -22 49 -54 63 -73 30 -39 42 -51 103 -104 28 -24 47 -48 47 -60 0 -12
8 -30 18 -41 10 -10 43 -51 75 -90 32 -40 67 -78 78 -85 13 -9 22 -29 26 -56
3 -24 10 -43 14 -43 5 0 9 -6 9 -13 0 -12 95 -175 109 -187 3 -3 22 -27 41
-55 44 -64 127 -147 144 -143 7 2 24 -10 38 -27 52 -62 158 -207 158 -216 0
-5 9 -18 20 -29 41 -41 79 -155 80 -238 0 -24 4 -51 10 -61 7 -15 18 -202 23
-411 0 -26 -17 -442 -33 -810 -6 -119 -15 -243 -21 -275 -6 -33 -20 -132 -29
-220 -10 -88 -25 -188 -33 -223 -9 -34 -20 -120 -26 -190 -6 -70 -18 -167 -26
-217 -8 -49 -22 -142 -30 -205 -8 -63 -24 -153 -35 -200 -11 -47 -23 -105 -26
-130 -3 -25 -11 -70 -19 -100 -8 -30 -28 -116 -45 -190 -42 -179 -63 -241
-126 -378 -13 -29 -24 -59 -24 -68 0 -8 -6 -17 -14 -20 -8 -3 -12 -12 -9 -20
3 -8 0 -14 -5 -14 -6 0 -14 -10 -18 -22 -4 -13 -10 -25 -14 -28 -25 -17 -89
-103 -83 -112 4 -7 0 -9 -10 -5 -11 4 -17 1 -17 -9 0 -8 -12 -29 -27 -45 -16
-17 -38 -42 -51 -56 -13 -14 -21 -32 -18 -40 3 -8 2 -12 -3 -9 -4 3 -39 -27
-77 -66 -38 -39 -103 -95 -144 -123 -136 -92 -174 -120 -188 -133 -8 -7 -32
-22 -53 -33 -22 -11 -48 -27 -57 -35 -22 -20 -110 -76 -142 -92 -14 -6 -43
-23 -65 -36 -22 -14 -71 -41 -109 -61 -38 -19 -74 -39 -80 -44 -22 -17 -252
-113 -411 -171 -39 -15 -151 -32 -235 -37 -47 -2 -91 -6 -97 -8 -38 -12 -587
32 -623 50 -14 7 -45 15 -70 19 -48 7 -123 33 -207 72 -29 13 -63 28 -77 34
-14 5 -55 28 -93 51 -37 23 -77 47 -88 53 -39 22 -141 92 -220 151 -45 33
-127 94 -184 135 -84 62 -310 234 -371 283 -8 7 -47 34 -85 60 -39 25 -90 65
-114 87 -23 22 -46 40 -50 40 -11 0 -97 92 -111 119 -7 13 -33 50 -58 83 -46
58 -79 109 -104 158 -7 14 -21 34 -30 44 -16 17 -18 18 -18 3 0 -9 5 -17 10
-17 6 0 10 -8 10 -17 0 -9 9 -26 19 -37 11 -12 21 -28 23 -36 2 -8 5 -17 8
-20 3 -3 19 -37 36 -77 l32 -72 -37 2 c-30 2 -37 -2 -39 -19 -2 -17 2 -22 21
-22 14 0 45 -13 69 -30 25 -17 57 -34 72 -38 16 -4 48 -25 71 -48 70 -65 95
-86 135 -106 51 -26 76 -65 61 -97 -6 -14 -11 -86 -11 -176 l0 -152 -55 -58
c-30 -31 -61 -57 -69 -57 -8 0 -16 -4 -18 -8 -1 -4 -77 -45 -168 -89 -151 -74
-167 -85 -178 -115 -6 -19 -12 -43 -12 -54 0 -11 -4 -24 -9 -30 -38 -38 -32
-565 8 -764 35 -172 51 -255 61 -320 7 -41 21 -106 32 -145 12 -38 23 -89 25
-112 l5 -43 1289 0 1289 0 0 40 c0 33 3 40 20 40 17 0 20 -7 20 -40 l0 -40 40
0 40 0 0 40 0 40 -40 0 -40 0 0 40 0 40 40 0 c28 0 40 4 40 15 0 18 47 65 65
65 8 0 15 9 15 20 0 17 7 20 40 20 33 0 40 3 40 20 0 18 7 20 60 20 l60 0 0
-44 c0 -29 -6 -51 -17 -62 -17 -16 -18 -16 -24 7 -5 18 -7 14 -8 -18 -1 -42
-2 -43 -36 -43 -34 0 -35 -1 -35 -40 0 -33 3 -40 20 -40 17 0 20 -7 20 -40 l0
-40 700 0 c673 0 700 1 700 18 0 11 10 54 21 98 27 99 37 149 49 244 5 41 14
86 20 100 10 25 24 101 39 215 5 33 16 110 25 170 18 118 15 202 -10 290 -24
82 -59 122 -154 173 -47 25 -112 60 -145 78 -33 19 -87 48 -120 65 -33 17 -61
35 -63 40 -2 5 -14 9 -26 9 -13 0 -37 5 -54 11 l-30 10 4 192 c5 175 4 190
-10 173 -21 -26 -20 -12 1 22 24 39 191 200 236 229 20 13 37 30 37 38 0 8 15
29 33 47 37 37 101 131 132 193 11 22 37 63 57 91 21 28 38 55 38 61 0 5 14
36 32 68 17 32 32 66 33 74 1 9 11 36 22 61 21 46 53 151 76 250 l12 55 60 -1
c33 -1 101 -8 150 -17 55 -9 94 -12 100 -6 5 5 39 9 77 9 l67 0 -6 -30 c-10
-51 19 -36 97 49 79 87 113 139 123 190 6 27 4 32 -11 29 -9 -2 -21 -18 -27
-36 -9 -32 -12 -33 -44 -28 -19 3 -37 10 -41 16 -5 8 -12 6 -23 -5 -15 -15
-17 -14 -23 10 -4 16 -13 25 -26 25 -11 0 -16 4 -12 11 3 6 0 15 -7 20 -11 6
-11 11 -2 20 18 18 63 -4 63 -31 0 -13 7 -20 18 -20 10 0 23 -5 29 -11 6 -6
20 -8 31 -5 30 10 16 48 -34 95 -24 22 -44 45 -44 51 0 18 -14 10 -67 -38 -40
-37 -63 -50 -106 -59 -58 -12 -125 -8 -169 10 -30 13 -37 27 -13 27 12 0 14
13 11 68 -2 37 -9 79 -16 94 -11 22 -11 55 -1 165 15 175 14 173 35 189 12 8
16 23 14 46 l-3 33 70 6 c65 5 119 20 156 44 20 13 53 63 67 100 6 17 20 55
31 85 31 82 23 267 -15 327 -8 12 -14 29 -14 38 0 8 -5 15 -11 15 -6 0 -17 6
-25 14 -7 8 -18 16 -24 18 -6 2 -12 19 -12 38 0 19 -6 51 -14 70 -18 51 -24
118 -10 123 8 3 8 8 -1 18 -10 9 -13 10 -13 1 0 -7 -7 -12 -15 -12 -7 0 -18
-7 -23 -16 -6 -10 -20 -14 -43 -12 -39 3 -36 -10 -24 158 4 52 16 126 27 164
11 37 21 86 23 108 2 22 9 46 16 54 9 12 16 10 40 -11 16 -13 35 -22 42 -20 6
2 26 6 42 10 l30 7 -35 13 c-44 15 -48 45 -6 56 16 5 68 4 115 0 75 -7 93 -12
131 -40 47 -34 69 -64 70 -94 0 -28 20 -9 20 20 0 17 -15 40 -45 70 -25 24
-43 48 -40 53 3 6 0 8 -7 5 -7 -3 -26 -1 -41 3 l-29 8 26 13 c14 8 26 18 26
23 0 17 21 7 54 -24 22 -22 36 -47 41 -73 6 -34 9 -37 19 -23 10 13 15 14 29
3 25 -18 23 -96 -3 -120 -25 -22 -25 -31 -2 -37 26 -7 45 11 62 57 13 39 27
573 28 1148 1 130 5 220 13 240 8 23 8 42 1 67 -10 34 -10 33 -11 -22 -1 -31
-6 -58 -12 -60 -13 -4 -28 -76 -29 -138 0 -28 -3 -40 -9 -32 -6 10 -10 10 -21
-3 -15 -18 -23 -145 -9 -145 5 0 9 -23 8 -50 -2 -40 2 -55 21 -75 13 -14 19
-25 14 -25 -5 0 -8 -18 -6 -40 4 -38 -4 -78 -13 -69 -2 3 -11 49 -20 104 -20
124 -22 128 -37 118 -13 -8 -26 -10 -145 -19 -50 -4 -78 -12 -92 -25 -23 -22
-38 -24 -44 -6 -9 27 19 407 33 442 4 11 11 29 15 40 6 20 7 20 21 1 8 -11 14
-26 14 -33 0 -7 4 -13 9 -13 5 0 9 -16 8 -35 -1 -19 -4 -35 -7 -35 -4 0 -15
-18 -25 -40 -14 -31 -16 -43 -7 -52 8 -8 12 -8 12 -2 0 6 8 21 19 33 16 18 20
19 31 6 17 -20 47 -19 59 2 8 14 10 9 11 -24 0 -35 3 -42 22 -45 25 -4 55 -73
35 -82 -9 -3 -9 -5 1 -5 6 -1 12 -9 12 -18 0 -13 3 -14 12 -5 14 14 20 49 22
132 0 30 4 57 8 61 4 3 2 20 -5 38 -10 28 -10 34 6 42 11 7 17 22 17 44 0 19
5 35 10 35 15 0 12 28 -6 55 -31 48 -44 32 -44 -53 0 -43 -2 -81 -4 -83 -3 -2
-24 -3 -49 -1 -42 4 -44 5 -60 50 -10 26 -17 62 -17 80 0 17 -4 32 -9 32 -5 0
-16 3 -25 6 -11 4 -16 0 -16 -12 0 -16 -2 -16 -10 -4 -11 18 -9 20 32 30 l33
8 -35 0 c-19 0 -48 4 -65 9 l-30 9 -11 175 c-6 96 -10 175 -9 177 3 3 12 -4
67 -50 24 -20 36 -22 58 -8 12 8 11 10 -7 10 -13 0 -41 17 -63 39 -32 31 -40
46 -40 75 0 20 -7 50 -15 65 -12 25 -13 31 0 41 16 13 16 14 14 288 -1 180 -4
215 -25 266 -6 16 -4 18 9 13 24 -9 21 10 -8 62 -19 32 -22 46 -14 52 20 12
-13 114 -43 137 -19 14 -25 52 -8 52 14 0 12 42 -4 63 -8 10 -20 16 -27 15
-15 -3 -15 4 -3 37 4 11 3 17 -2 12 -8 -8 -66 104 -57 113 2 2 8 -2 14 -10 7
-11 8 -6 3 15 -4 17 -17 41 -30 56 -13 14 -24 29 -24 33 0 5 -11 21 -25 38
-14 16 -25 37 -25 47 0 9 -16 44 -36 77 -21 32 -40 74 -43 93 -3 19 -15 39
-26 45 -11 6 -23 16 -27 21 -3 6 -18 23 -32 38 -14 15 -26 35 -26 43 0 7 -6
13 -13 12 -6 -2 -11 5 -11 15 1 10 -21 38 -53 65 -51 44 -53 47 -31 53 21 5
19 8 -27 37 -27 17 -60 32 -72 32 -28 0 -79 43 -100 84 -8 17 -25 41 -36 54
-12 12 -22 29 -23 38 -1 8 -19 31 -39 52 -20 20 -50 55 -68 78 -17 23 -49 54
-71 70 -22 16 -60 47 -84 69 l-45 40 -3393 3 -3394 2 0 -1520z m6728 1465 c-3
-3 -9 2 -12 12 -6 14 -5 15 5 6 7 -7 10 -15 7 -18z m90 -39 c32 -16 155 -135
192 -186 14 -18 35 -44 48 -57 39 -42 24 -58 -21 -23 -14 11 -30 20 -36 20
-12 0 -56 35 -80 64 -9 11 -26 29 -38 41 -13 12 -23 30 -23 39 0 9 -10 21 -22
26 -13 5 -17 9 -9 9 18 1 -26 51 -45 51 -15 0 -44 27 -44 40 0 10 31 0 78 -24z
m292 -301 c11 -13 10 -14 -4 -9 -9 3 -16 10 -16 15 0 13 6 11 20 -6z m-2537
-585 c3 -11 1 -20 -4 -20 -5 0 -9 9 -9 20 0 11 2 20 4 20 2 0 6 -9 9 -20z m87
-14 c0 -3 -4 -8 -10 -11 -5 -3 -10 -1 -10 4 0 6 5 11 10 11 6 0 10 -2 10 -4z
m-342 -29 c-16 -6 -28 -14 -28 -19 0 -10 -44 -11 -53 -1 -13 13 29 32 68 32
39 -1 39 -1 13 -12z m142 4 c0 -10 -57 -61 -69 -61 -5 0 -25 -9 -43 -19 -18
-11 -56 -22 -83 -26 -42 -5 -54 -3 -73 13 l-22 20 22 5 c13 3 48 9 78 13 38 5
62 14 76 29 12 13 30 25 40 26 32 7 74 6 74 0z m-250 -41 c-20 -13 -53 -13
-45 0 3 6 18 10 33 10 21 0 24 -2 12 -10z m920 -45 c16 -19 1 -19 -24 0 -16
12 -17 15 -4 15 8 0 21 -7 28 -15z m755 -155 c3 -5 1 -10 -4 -10 -6 0 -11 5
-11 10 0 6 2 10 4 10 3 0 8 -4 11 -10z m-5156 -226 c39 -8 41 -24 3 -24 -31 0
-81 29 -51 30 9 0 31 -3 48 -6z m2886 -22 c-6 -7 -34 11 -29 19 3 5 11 3 19
-4 7 -6 12 -13 10 -15z m2815 -132 c0 -5 -2 -10 -4 -10 -3 0 -8 5 -11 10 -3 6
-1 10 4 10 6 0 11 -4 11 -10z m-5963 -155 c8 -9 13 -18 11 -21 -3 -2 -13 5
-23 16 -21 23 -11 27 12 5z m2571 -28 c2 -15 -1 -27 -7 -27 -13 0 -61 -74 -61
-95 0 -8 -3 -14 -7 -13 -16 3 -43 -15 -43 -28 0 -18 -14 -18 -28 -1 -8 9 -1
23 28 53 21 23 42 53 46 68 3 14 10 26 15 26 5 0 9 8 9 18 0 42 43 42 48 -1z
m56 -63 c10 -25 7 -32 -11 -30 -12 1 -19 -7 -21 -25 -2 -16 -26 -50 -61 -85
-58 -59 -155 -144 -165 -144 -15 0 -2 22 37 62 61 65 97 111 97 124 0 7 7 15
16 18 10 4 13 13 9 25 -4 14 0 21 14 26 12 3 25 3 31 0 5 -3 10 0 10 7 0 15
19 38 31 38 4 0 10 -7 13 -16z m-1705 -273 c10 -7 8 -12 -10 -25 -21 -14 -24
-14 -32 -1 -15 28 11 45 42 26z m281 -181 c0 -5 -4 -10 -10 -10 -5 0 -10 5
-10 10 0 6 5 10 10 10 6 0 10 -4 10 -10z m-955 -10 c27 -10 30 -34 8 -58 -18
-18 -74 2 -110 40 l-27 28 51 0 c29 0 63 -4 78 -10z m-386 -129 c7 -5 10 -14
7 -20 -8 -13 -46 3 -46 19 0 12 20 13 39 1z m7651 -431 c0 -5 -5 -12 -11 -16
-14 -8 -33 11 -25 25 7 11 36 4 36 -9z m-7450 -20 c0 -5 -7 -10 -15 -10 -8 0
-15 5 -15 10 0 6 7 10 15 10 8 0 15 -4 15 -10z m827 -132 c-3 -8 -6 -5 -6 6
-1 11 2 17 5 13 3 -3 4 -12 1 -19z m-1099 -78 c0 -17 -4 -28 -9 -25 -11 8 -12
55 -1 55 5 0 9 -14 10 -30z m7660 -359 c9 -5 25 -12 35 -15 10 -3 17 -15 16
-28 l0 -23 -11 23 c-13 26 -23 28 -32 6 -8 -22 11 -54 29 -48 11 5 15 -1 14
-22 -1 -17 -3 -22 -6 -11 -2 9 -9 17 -14 17 -11 0 -11 2 2 -60 10 -46 12 -50
25 -33 13 17 13 17 14 -2 0 -14 3 -16 8 -7 13 20 62 -2 62 -28 0 -11 8 -24 18
-28 45 -19 82 -49 82 -64 0 -10 -7 -18 -15 -18 -8 0 -15 -7 -15 -15 0 -8 -4
-15 -10 -15 -5 0 -10 7 -10 15 0 8 -7 15 -16 15 -9 0 -22 7 -28 16 -12 16 -38
17 -181 11 l-50 -2 1 40 c1 35 37 238 49 273 5 14 10 15 33 3z m-60 -363 c20
-20 14 -38 -13 -38 -18 0 -25 5 -25 18 0 32 17 41 38 20z m389 -70 c-3 -7 -5
-2 -5 12 0 14 2 19 5 13 2 -7 2 -19 0 -25z m-405 16 c3 -3 -1 -19 -9 -35 -19
-38 -40 -24 -22 14 12 27 20 32 31 21z m-47 -124 c-4 -12 -9 -19 -12 -17 -3 3
-2 15 2 27 4 12 9 19 12 17 3 -3 2 -15 -2 -27z m-43 -169 c-9 -24 -22 12 -15
40 l7 24 6 -25 c4 -14 4 -31 2 -39z m-5467 -593 c3 -62 13 -139 21 -171 8 -32
14 -80 14 -105 -1 -46 -1 -47 -15 -21 -20 37 -57 59 -78 48 -28 -16 -92 34
-116 91 -34 78 -24 150 20 150 12 0 23 8 26 20 3 11 12 20 20 20 9 0 12 -6 8
-19 -6 -20 10 -71 23 -71 4 0 8 32 8 71 -1 59 2 73 18 85 39 28 44 19 51 -98z
m5446 -121 c-1 -12 -15 -9 -19 4 -3 6 1 10 8 8 6 -3 11 -8 11 -12z m-5751
-107 c0 -5 -5 -10 -11 -10 -5 0 -7 5 -4 10 3 6 8 10 11 10 2 0 4 -4 4 -10z
m5679 -45 c13 -27 15 -28 23 -10 7 16 8 15 5 -7 -3 -17 0 -28 8 -28 15 0 45
-63 45 -95 0 -13 5 -27 10 -30 39 -24 -35 -182 -95 -205 -13 -5 -32 -22 -42
-37 -10 -15 -23 -34 -30 -41 -7 -7 -13 -25 -13 -40 -1 -15 -7 -38 -15 -52 -12
-22 -14 -23 -20 -7 -10 24 4 95 15 78 4 -8 7 10 6 40 -1 38 6 68 21 99 13 25
22 59 22 75 -1 17 4 59 10 95 6 36 11 96 11 133 0 75 13 85 39 32z m301 -1333
c0 -11 -8 -27 -19 -36 -18 -16 -19 -16 -16 16 3 41 2 38 20 38 8 0 15 -8 15
-18z m-4630 -1124 c0 -16 -17 -15 -38 3 -31 25 -19 45 13 22 14 -10 25 -21 25
-25z m-100 -295 c0 -20 -3 -24 -11 -16 -7 7 -9 19 -6 27 10 24 17 19 17 -11z
m20 -129 c0 -17 17 -18 23 -1 3 6 6 -5 6 -25 1 -37 2 -38 41 -38 22 0 40 5 40
10 0 6 -17 10 -37 10 l-38 0 40 40 c54 53 91 54 145 3 35 -31 40 -43 42 -82
l1 -46 4 43 c3 34 8 42 24 42 15 0 19 -7 19 -36 0 -23 7 -43 18 -53 37 -33 62
-80 62 -115 0 -29 4 -36 20 -36 17 0 20 -7 20 -40 0 -28 4 -40 15 -40 18 0 65
-47 65 -65 0 -8 7 -15 16 -15 9 0 24 -10 35 -22 16 -20 20 -21 28 -8 8 12 15
10 40 -14 17 -16 28 -33 25 -38 -3 -4 -1 -8 5 -8 6 0 26 -14 46 -31 30 -27 35
-38 36 -78 1 -25 4 -36 6 -23 4 18 11 22 44 22 l39 0 -5 -62 c-2 -35 -2 -53 1
-40 5 18 12 22 45 22 l40 0 -7 -45 c-3 -25 -3 -56 0 -70 5 -21 12 -25 46 -25
22 0 40 -4 40 -10 0 -5 18 -10 40 -10 33 0 40 -3 40 -20 0 -12 7 -20 18 -20 9
0 23 -9 30 -20 7 -11 19 -20 27 -20 8 0 23 -9 32 -20 10 -11 23 -20 30 -20 8
0 13 -12 13 -29 0 -16 3 -43 6 -60 6 -31 6 -31 -35 -31 -39 0 -41 2 -41 30 0
28 -2 30 -40 30 -22 0 -40 5 -40 10 0 6 -18 10 -40 10 -33 0 -40 3 -40 20 0
17 -7 20 -40 20 l-40 0 0 -40 0 -40 60 0 60 0 0 -40 c0 -39 -1 -40 -36 -40
-24 0 -44 -8 -60 -23 -29 -27 -31 -57 -4 -57 17 0 20 -7 20 -40 0 -33 -3 -40
-20 -40 -13 0 -20 7 -20 20 0 17 -7 20 -40 20 -33 0 -40 3 -40 20 0 18 -7 20
-80 20 -47 0 -80 4 -80 10 0 6 -33 10 -80 10 l-80 0 0 30 c0 28 -3 30 -35 30
-34 0 -35 1 -35 40 l0 40 -45 0 c-25 0 -45 5 -45 10 0 6 -18 10 -40 10 -39 0
-40 1 -40 35 0 28 -8 42 -40 71 -34 31 -40 43 -40 75 0 32 -3 39 -20 39 -18 0
-20 7 -21 78 0 42 0 96 1 120 1 32 -2 42 -14 42 -13 0 -16 15 -18 83 -2 76 -2
77 -5 20 -4 -64 -15 -77 -41 -51 -19 19 -14 37 8 33 17 -3 20 2 20 36 0 38 -1
39 -34 39 -28 0 -35 -4 -38 -22 l-3 -23 -20 23 c-11 12 -30 22 -42 22 -28 0
-29 15 -3 37 21 18 27 43 10 43 -5 0 -10 18 -10 40 0 29 4 40 15 40 8 0 15 5
15 10 0 6 -4 10 -8 10 -17 0 -32 -25 -32 -52 0 -17 -5 -28 -14 -28 -8 0 -16
-6 -19 -12 -2 -7 -7 -10 -11 -7 -10 9 6 99 18 99 7 0 12 25 13 66 1 38 6 70
13 74 6 4 14 47 17 98 6 85 7 90 19 66 8 -15 14 -33 14 -40z m3395 -350 c2
-32 9 -90 14 -128 6 -38 7 -74 3 -80 -4 -6 -11 14 -15 44 -11 78 -20 236 -13
229 3 -3 8 -32 11 -65z m-185 -4 c0 -5 -4 -10 -10 -10 -5 0 -10 5 -10 10 0 6
5 10 10 10 6 0 10 -4 10 -10z m-87 -11 l47 -3 0 -73 c0 -42 -4 -73 -10 -73 -5
0 -10 -11 -10 -25 0 -25 -31 -65 -50 -65 -5 0 -10 -18 -10 -40 0 -47 -17 -54
-22 -8 l-3 32 -32 -32 c-21 -21 -33 -28 -36 -19 -3 6 -6 -6 -6 -27 -1 -22 -4
-36 -8 -33 -15 16 -33 -18 -33 -65 l0 -50 -30 6 c-17 3 -29 2 -26 -3 6 -9 -37
-52 -69 -69 -11 -6 -14 -12 -7 -12 33 -1 -19 -80 -53 -80 -8 0 -15 -6 -15 -13
0 -17 -59 -38 -87 -31 -18 5 -25 1 -32 -19 -6 -14 -29 -37 -53 -51 -24 -14
-59 -41 -78 -61 -38 -39 -56 -44 -64 -17 -3 9 -4 2 -2 -15 2 -27 -1 -33 -16
-33 -11 0 -29 -5 -40 -11 -14 -8 -23 -8 -27 -1 -4 7 -23 -5 -46 -28 -53 -52
-75 -52 -75 -2 0 26 6 41 19 49 15 10 21 10 24 0 3 -7 6 7 6 31 1 34 4 42 20
42 10 0 22 8 25 18 14 37 38 71 69 99 17 15 40 39 49 53 10 14 25 35 34 48 16
21 15 22 -4 22 -23 0 -72 -46 -72 -67 0 -7 -11 -13 -25 -13 -18 0 -25 -5 -25
-19 0 -10 -8 -21 -19 -24 -10 -2 -21 -17 -25 -33 -11 -44 -22 -52 -59 -45 -29
6 -53 41 -28 41 6 0 11 18 11 40 0 37 2 40 26 40 26 0 27 1 21 56 -4 39 -12
62 -26 76 -28 25 -26 34 7 55 15 10 53 44 84 75 31 32 65 58 74 58 10 0 14 3
11 6 -10 10 12 44 28 44 7 0 23 12 34 28 11 15 21 21 21 15 1 -37 80 14 80 51
0 12 10 16 40 16 22 0 39 3 39 8 -6 34 2 42 41 42 35 0 40 3 40 23 0 21 51 77
71 77 5 0 9 -16 9 -35 0 -25 -4 -35 -16 -35 -12 0 -15 -10 -13 -45 2 -36 -2
-50 -24 -75 -15 -16 -27 -37 -27 -45 0 -8 -8 -15 -19 -15 -10 0 -24 -7 -31
-15 -7 -8 -16 -12 -21 -9 -5 3 -9 -4 -9 -15 0 -15 -6 -21 -23 -21 -21 0 -36
-18 -53 -62 -3 -10 -10 -18 -15 -18 -5 0 -9 -9 -9 -20 0 -11 4 -20 10 -20 5 0
15 9 22 20 7 11 18 20 24 20 7 0 15 8 18 18 15 38 31 62 43 62 7 0 13 5 13 10
0 6 6 10 13 10 13 0 61 36 103 78 13 12 27 22 33 22 5 0 20 14 32 32 13 17 25
26 27 20 7 -21 18 -13 38 28 10 22 24 40 29 40 6 0 22 18 35 40 22 35 45 51
61 44 3 -2 26 -4 52 -5z m214 -61 c-2 -13 -4 -3 -4 22 0 25 2 35 4 23 2 -13 2
-33 0 -45z m594 -50 c10 -21 19 -45 19 -56 0 -10 5 -23 11 -29 14 -14 25 -123
12 -123 -11 0 -28 64 -24 88 1 6 -2 12 -6 12 -5 0 -15 21 -22 48 -7 26 -24 66
-37 89 -13 23 -24 44 -24 47 0 15 54 -43 71 -76z m-3901 -58 c0 -5 -4 -10 -10
-10 -5 0 -10 5 -10 10 0 6 5 10 10 10 6 0 10 -4 10 -10z m3888 -61 c25 -46 25
-49 14 -49 -7 0 -52 74 -52 86 0 16 20 -3 38 -37z m-4358 -193 c0 -18 -6 -25
-22 -28 -20 -3 -23 -10 -26 -55 -3 -49 -5 -53 -28 -53 -23 0 -24 2 -24 76 l0
77 28 -6 c15 -2 36 -1 47 3 11 5 21 9 23 9 1 1 2 -10 2 -23z m129 14 c23 0 51
-44 51 -80 0 -98 -132 -107 -154 -10 -11 46 44 109 82 95 8 -3 17 -5 21 -5z
m3321 -276 c0 -19 -4 -34 -10 -34 -5 0 -10 18 -10 41 0 24 4 38 10 34 6 -3 10
-22 10 -41z m-1746 -20 c3 -9 -1 -14 -14 -14 -13 0 -20 7 -20 20 0 22 25 18
34 -6z m1686 -54 c0 -33 -3 -40 -20 -40 -17 0 -20 7 -20 40 0 33 3 40 20 40
17 0 20 -7 20 -40z m-1560 -20 c0 -17 -7 -20 -40 -20 -33 0 -40 3 -40 20 0 17
7 20 40 20 33 0 40 -3 40 -20z m1360 -21 l0 -40 -42 3 c-35 2 -44 7 -46 25 -3
17 1 20 18 16 14 -4 28 2 41 16 11 11 22 21 24 21 3 0 5 -18 5 -41z m-540 6
c0 -8 -4 -17 -10 -20 -6 -4 -10 5 -10 20 0 15 4 24 10 20 6 -3 10 -12 10 -20z
m-1140 -25 c0 -5 9 -10 20 -10 11 0 20 -5 20 -11 0 -8 -11 -9 -31 -5 -17 3
-44 6 -60 6 -19 0 -29 5 -29 15 0 11 11 15 40 15 22 0 40 -4 40 -10z m1550
-50 c12 -8 11 -10 -7 -10 -13 0 -23 5 -23 10 0 13 11 13 30 0z m-2110 -30 c0
-13 -5 -17 -14 -14 -24 9 -28 34 -6 34 13 0 20 -7 20 -20z m720 -10 c0 -5 -4
-10 -9 -10 -6 0 -13 5 -16 10 -3 6 1 10 9 10 9 0 16 -4 16 -10z m80 -10 c0
-23 -4 -24 -32 -9 -17 9 -18 13 -7 20 23 15 39 10 39 -11z m-280 -35 c0 -3 -9
-5 -20 -5 -11 0 -20 7 -20 15 0 13 4 14 20 5 11 -6 20 -13 20 -15z m140 -65
c14 -11 33 -20 43 -20 10 0 17 -8 17 -20 0 -18 -7 -20 -80 -20 l-80 0 0 40 c0
40 0 40 38 40 21 0 48 -9 62 -20z m-80 -140 c0 -38 2 -40 30 -40 20 0 30 -5
30 -15 0 -11 -11 -15 -40 -15 l-40 0 0 55 c0 30 5 55 10 55 6 0 10 -18 10 -40z"/>
<path d="M6931 9365 c0 -14 28 -50 34 -43 3 3 -3 16 -14 29 -11 13 -20 20 -20
14z"/>
<path d="M6990 9286 c0 -2 7 -7 16 -10 8 -3 12 -2 9 4 -6 10 -25 14 -25 6z"/>
<path d="M3520 1450 c0 -5 5 -10 10 -10 6 0 10 5 10 10 0 6 -4 10 -10 10 -5 0
-10 -4 -10 -10z"/>
<path d="M5923 1075 c0 -22 2 -30 4 -17 2 12 2 30 0 40 -3 9 -5 -1 -4 -23z"/>
<path d="M5790 815 c-10 -12 -10 -15 4 -15 9 0 16 7 16 15 0 8 -2 15 -4 15 -2
0 -9 -7 -16 -15z"/>
<path d="M2891 818 c-15 -42 7 -80 34 -58 18 15 19 52 3 68 -18 18 -28 15 -37
-10z"/>
<path d="M9110 9560 l0 -40 45 0 45 0 0 -36 c0 -30 8 -44 38 -73 l37 -36 3 43
c2 28 8 42 18 42 16 0 18 12 4 26 -5 5 -5 15 -1 23 7 11 23 11 82 3 41 -5 80
-11 88 -13 8 -2 16 4 19 13 3 14 -2 16 -32 11 -34 -5 -50 7 -26 22 6 3 10 1
10 -5 0 -6 5 -8 11 -4 8 4 8 9 0 17 -27 27 0 34 52 12 12 -5 17 -3 17 8 0 8
-7 18 -16 21 -9 3 -101 6 -205 6 l-189 0 0 -40z"/>
<path d="M9014 9553 c3 -16 8 -38 12 -50 9 -32 -19 -40 -52 -14 -35 27 -44 26
-44 -4 0 -15 6 -25 14 -25 8 0 17 -6 20 -12 5 -10 7 -10 12 0 3 6 18 12 34 12
25 0 28 4 33 41 5 40 -8 79 -27 79 -5 0 -6 -12 -2 -27z"/>
<path d="M8920 9530 c0 -5 5 -10 11 -10 5 0 7 5 4 10 -3 6 -8 10 -11 10 -2 0
-4 -4 -4 -10z"/>
<path d="M9031 9424 c0 -11 3 -14 6 -6 3 7 2 16 -1 19 -3 4 -6 -2 -5 -13z"/>
<path d="M9168 9320 c-6 -64 2 -120 18 -120 8 0 14 -5 14 -11 0 -7 12 -22 26
-35 14 -13 23 -28 19 -33 -3 -5 3 -16 13 -23 10 -7 21 -19 23 -27 3 -9 11 -2
21 20 14 30 14 44 2 124 -23 155 -18 145 -79 145 l-53 0 -4 -40z m52 -27 c0
-7 -4 -13 -10 -13 -5 0 -10 12 -10 28 0 21 2 24 10 12 5 -8 10 -21 10 -27z"/>
<path d="M7170 9290 c0 -5 4 -10 9 -10 5 0 21 -36 37 -80 15 -44 31 -80 36
-80 12 0 9 12 -7 34 -8 11 -15 29 -15 40 -1 29 -37 106 -50 106 -5 0 -10 -4
-10 -10z"/>
<path d="M9310 9065 c0 -16 -6 -25 -15 -25 -8 0 -15 -7 -15 -15 0 -20 10 -18
38 5 17 14 22 25 17 40 -9 28 -25 25 -25 -5z"/>
<path d="M9513 8923 c-20 -8 -16 -43 5 -43 21 0 42 18 42 37 0 13 -24 16 -47
6z"/>
<path d="M9490 8680 c0 -29 4 -40 15 -40 11 0 15 -11 15 -40 l0 -40 40 0 40 0
0 80 0 80 -55 0 -55 0 0 -40z"/>
<path d="M8515 8141 c-6 -11 9 -23 19 -14 9 9 7 23 -3 23 -6 0 -12 -4 -16 -9z"/>
<path d="M8550 8087 c0 -10 8 -17 18 -17 9 0 13 4 7 8 -5 4 -13 11 -17 16 -5
5 -8 2 -8 -7z"/>
<path d="M6160 8050 c0 -6 7 -10 15 -10 8 0 15 2 15 4 0 2 -7 6 -15 10 -8 3
-15 1 -15 -4z"/>
<path d="M6216 8011 c-8 -12 21 -34 34 -26 7 4 5 11 -4 21 -17 16 -23 17 -30
5z"/>
<path d="M8000 7012 c0 -13 76 -45 92 -39 9 4 7 6 -4 6 -10 1 -18 7 -18 15 0
7 -10 16 -22 20 -32 8 -48 7 -48 -2z"/>
<path d="M9040 6966 c0 -2 9 -6 20 -9 11 -3 20 -1 20 4 0 5 -9 9 -20 9 -11 0
-20 -2 -20 -4z"/>
<path d="M8209 6904 c-7 -9 -9 -18 -3 -22 15 -11 37 -55 41 -82 7 -59 15 -100
20 -100 2 0 9 5 16 12 10 9 10 27 0 87 -20 117 -40 146 -74 105z"/>
<path d="M9297 6830 c3 -10 14 -28 26 -40 19 -22 21 -22 34 -5 7 10 15 16 18
13 10 -9 14 -49 5 -43 -5 3 -11 1 -15 -5 -4 -7 -12 -7 -23 -1 -10 6 -23 6 -35
-1 -10 -5 -21 -7 -24 -4 -3 3 -15 -1 -27 -9 -11 -8 -28 -15 -37 -15 -10 0 -19
-5 -21 -11 -2 -6 -48 -12 -113 -14 -127 -5 -205 -16 -208 -30 -1 -5 13 -11 31
-13 76 -8 10 -72 -74 -72 -30 0 -176 34 -195 45 -9 6 -99 -25 -99 -35 0 -13
55 -20 229 -29 l164 -9 34 -38 c18 -21 33 -49 33 -61 0 -13 5 -23 10 -23 6 0
10 -5 10 -11 0 -17 35 -45 112 -91 79 -47 81 -49 101 -113 21 -66 18 -119 -7
-123 -15 -3 -16 -6 -5 -13 12 -7 11 -11 -3 -26 -17 -16 -18 -16 -18 3 0 11 -5
25 -12 32 -14 14 -62 16 -53 2 3 -5 16 -10 27 -10 20 0 21 -1 3 -20 -10 -11
-24 -20 -32 -20 -7 0 -13 -9 -13 -20 0 -11 -7 -20 -15 -20 -8 0 -15 -9 -15
-19 0 -10 7 -21 15 -25 19 -7 19 -40 0 -56 -12 -10 -13 -16 -4 -27 10 -11 14
-11 20 -1 5 7 12 -5 20 -35 6 -26 15 -47 21 -47 5 0 12 -8 15 -17 4 -10 16
-25 26 -34 18 -14 21 -35 28 -265 7 -243 16 -324 42 -364 9 -16 9 -24 -1 -41
-10 -15 -11 -24 -3 -32 15 -15 101 -25 221 -26 94 0 103 1 86 14 -11 8 -28 15
-38 15 -10 0 -18 4 -18 10 0 5 -33 9 -75 8 -91 -1 -135 15 -135 48 0 28 20 42
31 22 12 -22 113 -35 232 -29 l27 1 0 305 0 305 -64 0 c-92 0 -124 14 -132 57
-4 19 -3 65 1 101 4 37 7 82 6 100 -1 18 6 60 15 92 9 33 13 67 9 77 -9 23 -7
127 7 273 5 63 9 134 9 158 -2 47 5 66 20 56 6 -4 6 -11 -1 -19 -13 -15 -6
-35 12 -35 13 0 37 30 38 48 0 7 -11 30 -25 50 -20 29 -25 49 -25 99 0 37 -5
65 -12 69 -7 4 -47 9 -89 10 -70 2 -76 1 -72 -16z m-117 -481 c0 -6 -4 -7 -10
-4 -5 3 -10 11 -10 16 0 6 5 7 10 4 6 -3 10 -11 10 -16z m180 -499 c0 -10 -9
-24 -20 -30 -21 -11 -23 -8 -14 28 8 27 34 29 34 2z m-185 -40 c3 -5 1 -10 -4
-10 -6 0 -11 5 -11 10 0 6 2 10 4 10 3 0 8 -4 11 -10z"/>
<path d="M8507 6679 c25 -25 141 -31 193 -11 21 8 -61 20 -139 21 -49 1 -62
-2 -54 -10z"/>
<path d="M8080 6650 c0 -5 7 -10 16 -10 8 0 12 5 9 10 -3 6 -10 10 -16 10 -5
0 -9 -4 -9 -10z"/>
<path d="M8393 6634 c-7 -19 2 -28 22 -21 19 8 19 23 0 31 -9 3 -18 -1 -22
-10z"/>
<path d="M8347 6613 c-14 -14 17 -33 52 -31 l36 1 -32 4 c-20 3 -33 10 -33 19
0 15 -12 19 -23 7z"/>
<path d="M3160 6550 c-8 -4 -44 -13 -80 -19 -73 -12 -180 -53 -255 -98 -35
-20 -56 -42 -70 -71 -11 -23 -24 -42 -30 -42 -5 0 -20 -35 -33 -78 -12 -42
-25 -85 -28 -94 -5 -14 -1 -18 20 -18 21 0 29 8 43 40 13 29 25 41 45 45 16 4
28 10 28 14 0 4 13 8 29 8 21 0 31 -6 35 -20 4 -15 10 -18 27 -14 13 4 29 1
37 -6 15 -12 41 -16 162 -21 75 -3 219 -21 251 -31 10 -3 20 -12 23 -21 4 -12
2 -12 -14 -4 -27 15 -91 10 -112 -8 -25 -21 -22 -29 12 -37 17 -4 30 -13 30
-21 0 -15 -28 -19 -89 -15 -31 2 -33 1 -21 -14 7 -9 19 -14 27 -11 7 3 23 1
35 -4 20 -8 20 -9 4 -9 -24 -1 -96 -32 -96 -42 0 -4 16 -13 34 -19 24 -8 33
-16 29 -26 -4 -11 -9 -12 -19 -3 -13 11 -18 5 -15 -15 3 -17 -43 -39 -82 -40
-31 -1 -41 -5 -43 -20 -3 -22 -21 -36 -46 -36 -9 0 -18 -6 -20 -12 -3 -7 -11
-13 -19 -14 -37 -2 -79 -18 -79 -29 0 -7 -7 -15 -15 -19 -8 -3 -15 -12 -15
-20 0 -7 -12 -22 -27 -31 -25 -17 -26 -18 -8 -31 25 -18 31 -18 54 5 10 10 30
21 45 25 25 6 26 5 26 -34 l0 -40 -44 0 c-25 0 -47 4 -51 9 -7 12 -77 -28 -73
-41 2 -5 26 -19 53 -31 27 -12 57 -29 67 -39 17 -17 32 -20 97 -22 34 -1 35
-15 8 -69 -26 -49 -18 -60 23 -35 27 17 46 -1 31 -29 -12 -23 2 -43 31 -43 17
0 56 -18 68 -30 3 -3 20 -16 38 -29 17 -12 32 -28 32 -34 0 -7 16 -28 34 -48
29 -31 41 -37 92 -42 33 -3 66 -8 75 -12 10 -4 19 0 22 9 4 11 -4 21 -26 33
-32 17 -32 17 -7 21 14 1 35 8 47 14 12 6 30 7 40 3 10 -5 22 -7 27 -6 5 1 6
-7 3 -19 -3 -11 -1 -20 3 -20 5 0 15 -3 24 -6 12 -5 16 1 16 24 0 25 3 29 19
25 10 -3 22 1 26 7 5 8 16 1 34 -20 l26 -32 27 21 c19 15 41 21 80 21 53 1 88
16 88 40 0 8 9 11 25 8 17 -4 25 -1 25 8 0 10 13 14 43 14 47 0 87 9 87 19 0
9 -77 41 -98 41 -9 -1 -39 -7 -67 -15 -43 -12 -46 -14 -20 -15 27 -2 27 -3
-10 -11 -55 -11 -75 -11 -75 1 0 6 10 10 23 11 21 0 21 1 -3 10 -24 10 -23 12
30 32 30 12 68 31 83 41 42 29 107 124 107 158 0 37 18 33 40 -8 11 -19 26
-30 44 -32 27 -3 28 -6 22 -42 -5 -33 -2 -43 19 -66 20 -21 28 -25 37 -16 7 7
20 12 30 12 15 0 17 -3 8 -19 -6 -13 -23 -21 -47 -23 -56 -5 -51 -24 9 -38 29
-7 60 -16 68 -20 23 -11 116 -40 128 -40 22 0 -12 117 -50 172 -21 30 3 34 27
4 14 -17 25 -24 29 -17 9 14 -13 91 -32 114 -11 13 -12 21 -5 28 14 14 33 3
33 -17 0 -8 10 -14 25 -14 37 0 74 -20 78 -44 2 -11 5 0 6 25 1 41 6 51 38 80
22 19 33 34 25 37 -7 2 -12 21 -12 43 0 21 -4 39 -10 39 -5 0 -10 6 -10 13 0
6 -20 43 -45 82 -25 38 -45 75 -45 81 0 7 -17 23 -37 35 -35 22 -36 24 -15 29
13 3 23 10 24 15 0 6 7 19 14 30 12 17 17 18 35 7 27 -17 96 -24 104 -12 10
16 75 12 81 -5 5 -11 10 -13 19 -5 7 6 19 9 26 8 18 -4 37 68 21 84 -8 8 -14
5 -21 -15 -6 -15 -15 -27 -21 -27 -13 0 -13 4 4 45 8 19 12 35 9 35 -3 0 2 9
11 19 16 18 16 20 1 28 -9 5 -18 22 -19 38 -6 49 -104 125 -162 125 -19 0 -25
4 -21 15 8 20 -5 26 -69 31 -50 4 -56 2 -61 -16 -7 -26 -12 -26 -55 10 -24 20
-39 27 -44 19 -3 -6 -9 -7 -13 -2 -7 11 -75 53 -85 53 -4 0 -4 -4 -1 -10 10
-16 -31 -12 -86 10 -29 10 -56 17 -60 14 -5 -2 -25 2 -45 11 -42 17 -81 20
-86 5 -5 -16 -88 -1 -88 16 0 16 3 15 -102 17 -43 0 -78 4 -78 9 0 4 -9 8 -20
8 -12 0 -38 9 -60 20 -22 11 -47 20 -57 20 -10 0 -46 9 -80 20 -51 16 -74 18
-130 11 -38 -5 -73 -5 -78 -1 -6 5 -17 5 -25 0z m1274 -245 c-4 -8 -8 -15 -10
-15 -2 0 -4 7 -4 15 0 8 4 15 10 15 5 0 7 -7 4 -15z m-1599 -55 c3 -5 1 -10
-4 -10 -6 0 -11 5 -11 10 0 6 2 10 4 10 3 0 8 -4 11 -10z m89 -6 c4 -10 1 -14
-6 -12 -15 5 -23 28 -10 28 5 0 13 -7 16 -16z m156 -35 c0 -12 -57 -12 -64 0
-4 5 -1 11 6 13 18 6 58 -3 58 -13z m420 -119 c0 -5 -7 -10 -16 -10 -8 0 -12
5 -9 10 3 6 10 10 16 10 5 0 9 -4 9 -10z m107 -26 c2 -13 1 -15 -4 -4 -3 8
-11 19 -17 23 -7 6 -6 7 4 4 8 -2 16 -12 17 -23z m-47 7 c0 -5 -9 -7 -20 -4
-11 3 -20 7 -20 9 0 2 9 4 20 4 11 0 20 -4 20 -9z m33 -148 c-7 -2 -21 -2 -30
0 -10 3 -4 5 12 5 17 0 24 -2 18 -5z m70 -80 c-7 -2 -21 -2 -30 0 -10 3 -4 5
12 5 17 0 24 -2 18 -5z m80 -18 c37 -4 44 -12 18 -20 -12 -4 -22 -16 -22 -28
-2 -22 -2 -22 -6 1 -5 25 -23 30 -23 6 0 -13 -3 -14 -13 -5 -8 6 -16 8 -20 5
-3 -3 -3 3 0 15 3 12 10 21 17 21 6 0 4 5 -4 11 -12 9 -11 9 5 4 11 -5 33 -9
48 -10z m-363 -30 c0 -8 -4 -15 -10 -15 -5 0 -10 7 -10 15 0 8 5 15 10 15 6 0
10 -7 10 -15z m-161 -61 c2 -2 -7 -4 -22 -4 -14 0 -29 5 -32 10 -6 10 42 4 54
-6z m-209 -34 c0 -5 -4 -10 -10 -10 -5 0 -10 5 -10 10 0 6 5 10 10 10 6 0 10
-4 10 -10z m750 -90 c0 -5 -9 -10 -21 -10 -11 0 -17 5 -14 10 3 6 13 10 21 10
8 0 14 -4 14 -10z m-358 -9 c16 -6 27 -23 37 -57 29 -101 86 -173 166 -210
l50 -24 -82 4 c-95 4 -247 53 -285 91 -53 53 -53 55 -23 79 32 25 46 72 20 62
-9 -3 -13 -2 -10 4 8 13 -16 13 -49 0 -14 -5 -26 -6 -26 -1 0 12 48 31 79 31
16 0 42 7 57 15 34 18 36 18 66 6z m326 -151 c16 -1 16 -1 0 -10 -18 -11 -48
-3 -48 12 0 6 7 7 16 4 9 -3 23 -6 32 -6z m537 -109 c-3 -6 -11 -11 -17 -11
-6 0 -6 6 2 15 14 17 26 13 15 -4z m-595 -91 c0 -5 -7 -10 -15 -10 -8 0 -15 5
-15 10 0 6 7 10 15 10 8 0 15 -4 15 -10z m-146 -18 c2 -4 1 -14 -3 -21 -6 -9
-10 -7 -14 8 -5 20 7 29 17 13z"/>
<path d="M600 6350 c0 -5 9 -10 20 -10 11 0 20 -5 20 -12 0 -6 3 -8 6 -5 9 9
-15 37 -32 37 -8 0 -14 -4 -14 -10z"/>
<path d="M8110 6315 c-7 -9 -9 -26 -4 -47 4 -18 9 -28 11 -21 2 7 10 10 18 7
23 -9 27 14 4 26 -14 8 -19 18 -16 31 6 23 3 24 -13 4z"/>
<path d="M6684 6205 c11 -8 33 -15 50 -15 23 0 27 -3 18 -12 -9 -9 -23 -9 -59
1 -85 22 -147 29 -155 18 -5 -8 -14 -8 -30 0 -34 15 -148 10 -159 -8 -7 -12
-50 -14 -249 -11 -203 2 -244 0 -263 -13 -12 -8 -31 -15 -43 -15 -13 0 -24 -8
-27 -17 -3 -10 -5 -3 -6 16 -1 28 -4 32 -18 26 -10 -5 -38 -13 -62 -20 -25 -7
-47 -17 -49 -24 -3 -9 -9 -7 -23 5 -10 9 -25 14 -34 10 -11 -4 -15 -1 -13 12
2 13 -5 18 -34 20 -31 3 -43 -3 -82 -41 -25 -24 -46 -49 -46 -55 0 -7 -4 -12
-9 -12 -19 0 -36 -100 -33 -197 2 -62 38 -113 79 -113 26 0 26 0 7 22 l-19 21
27 -17 c27 -18 58 -57 58 -75 0 -6 -16 -25 -35 -44 -19 -19 -35 -41 -35 -51 0
-9 -5 -16 -11 -16 -8 0 -9 -24 -4 -80 5 -56 4 -80 -4 -80 -7 0 -11 -28 -11
-80 0 -62 3 -80 14 -80 13 0 46 -66 46 -94 0 -19 23 -36 37 -28 6 4 16 33 23
65 6 31 16 57 21 57 23 0 79 75 79 106 0 24 17 34 56 34 19 0 24 -4 20 -17
-24 -80 -18 -91 24 -42 15 19 33 30 44 28 15 -3 11 -11 -24 -49 -51 -56 -120
-159 -120 -179 0 -35 12 -61 24 -52 18 14 80 25 72 12 -4 -7 1 -11 13 -11 10
0 21 5 23 11 3 8 36 11 96 11 52 -1 92 3 92 8 0 6 -13 10 -30 10 -16 0 -53 9
-82 19 -29 11 -64 21 -77 23 -35 4 -37 26 -4 39 15 6 40 23 56 39 15 15 44 36
65 45 20 10 39 21 42 24 3 4 16 11 30 18 25 10 27 9 49 -48 32 -83 123 -167
209 -193 71 -21 113 -18 185 14 85 38 157 119 157 177 1 67 23 60 82 -26 30
-43 35 -57 28 -77 -8 -20 -5 -27 15 -40 14 -9 23 -20 20 -24 -9 -14 -141 -50
-223 -61 -58 -8 -98 -7 -153 1 -41 7 -93 14 -116 17 -24 3 -41 8 -38 12 5 9 1
10 -85 16 -64 4 -64 4 -30 -9 19 -8 49 -15 65 -15 26 -1 120 -29 105 -31 -45
-7 -124 -5 -164 6 -39 10 -52 11 -58 1 -5 -9 -11 -7 -20 6 -11 14 -23 17 -63
13 -28 -2 -56 -5 -62 -5 -7 -1 -13 -10 -13 -21 0 -13 -7 -20 -20 -20 -21 0
-45 -34 -35 -50 3 -6 25 -10 49 -10 33 0 47 -6 64 -25 12 -14 28 -25 36 -25 7
0 27 -7 42 -15 16 -8 43 -15 60 -15 17 0 44 -4 60 -9 16 -5 41 -12 56 -15 25
-6 25 -5 15 19 -7 15 -20 25 -33 25 -11 0 -29 9 -39 20 -18 20 -18 20 16 14
19 -4 37 -12 41 -18 5 -6 8 -7 8 -1 0 13 49 35 55 25 3 -5 -1 -10 -7 -13 -9
-3 -3 -14 16 -33 24 -23 32 -25 47 -16 63 39 59 39 79 12 l19 -25 13 32 c8 20
21 34 37 38 15 4 34 14 44 22 16 15 17 14 17 -20 0 -39 18 -51 27 -17 5 18 14
20 74 20 l69 0 0 -29 c0 -48 29 -48 47 -1 13 32 20 39 35 34 13 -4 21 2 28 21
8 21 14 24 37 19 16 -4 33 -13 39 -20 16 -20 21 -18 28 11 4 16 16 27 33 31
25 7 25 8 8 15 -11 4 -14 8 -7 8 6 1 12 8 12 16 0 17 18 19 39 6 7 -5 21 -6
31 -4 22 6 21 50 -1 63 -11 7 -10 10 4 16 9 3 14 10 11 15 -3 5 12 9 34 9 53
0 128 15 177 35 l39 17 -24 13 c-14 7 -29 10 -35 5 -5 -4 -28 -8 -49 -7 -21 1
-34 3 -27 5 20 7 11 19 -11 15 -14 -2 -33 5 -50 20 -31 27 -26 45 6 23 12 -7
40 -17 62 -20 37 -7 42 -5 47 15 7 24 -8 59 -24 59 -16 0 -39 27 -39 44 0 9
-6 16 -14 16 -10 0 -14 9 -13 28 2 24 -1 27 -28 27 -22 0 -33 6 -40 23 -6 13
-19 22 -32 22 -20 0 -82 27 -93 41 -3 4 -16 9 -30 13 -14 4 -36 12 -50 18 -14
6 -34 14 -45 18 -30 11 -67 29 -100 48 -16 9 -31 17 -33 18 -9 4 12 34 24 34
15 0 37 34 27 44 -3 3 4 6 16 6 14 0 20 4 15 11 -5 9 3 10 29 5 21 -4 38 -2
42 4 6 10 -17 13 -92 10 -55 -2 -55 11 0 30 44 17 117 9 117 -12 0 -6 7 -4 16
3 11 9 49 14 118 14 136 2 136 2 136 25 0 29 42 27 55 -2 6 -13 20 -24 31 -26
12 -2 26 -13 32 -25 9 -20 11 -18 12 18 l1 40 31 -35 c29 -32 30 -35 13 -38
-47 -7 -49 -13 -14 -37 19 -13 51 -42 72 -64 l37 -41 0 43 c0 28 -8 54 -24 77
-13 19 -27 51 -31 70 -4 19 -14 44 -21 55 -8 11 -14 25 -14 32 0 19 -51 94
-79 118 -13 11 -40 29 -60 40 -20 11 -48 28 -62 38 -14 10 -55 23 -90 31 -35
7 -87 25 -114 38 -59 30 -194 49 -161 23z m-44 -25 c0 -5 -2 -10 -4 -10 -3 0
-8 5 -11 10 -3 6 -1 10 4 10 6 0 11 -4 11 -10z m227 -46 c-3 -3 -12 -4 -19 -1
-8 3 -5 6 6 6 11 1 17 -2 13 -5z m-252 -324 c3 -5 -7 -18 -22 -30 -16 -12 -29
-17 -31 -11 -2 6 -12 11 -23 11 -21 0 -22 1 -13 23 6 16 80 22 89 7z m-230
-20 c-3 -5 -13 -10 -21 -10 -8 0 -12 5 -9 10 3 6 13 10 21 10 8 0 12 -4 9 -10z
m6 -411 c22 -11 17 -31 -6 -23 -13 5 -30 34 -19 34 3 0 14 -5 25 -11z m347
-125 c12 -8 22 -22 22 -29 0 -13 -21 -15 -71 -6 -10 2 -20 32 -13 42 8 14 37
11 62 -7z m-421 -21 c-24 -10 -50 -13 -72 -9 -65 13 -48 26 32 25 l78 0 -38
-16z"/>
<path d="M781 6149 c-21 -17 -23 -23 -13 -37 40 -57 46 -87 51 -262 3 -96 9
-180 13 -186 8 -12 -30 -33 -65 -35 -12 -1 3 -5 33 -9 63 -8 85 7 76 50 -4 14
-10 78 -15 143 -5 65 -15 159 -22 209 -12 82 -12 91 4 103 22 16 22 25 -1 25
-10 0 -22 4 -27 9 -6 6 -19 2 -34 -10z"/>
<path d="M709 6114 c-12 -14 -11 -16 5 -13 11 2 21 10 24 17 5 17 -13 15 -29
-4z"/>
<path d="M8325 6120 c-3 -5 1 -10 9 -10 9 0 16 5 16 10 0 6 -4 10 -9 10 -6 0
-13 -4 -16 -10z"/>
<path d="M3180 6110 c0 -5 5 -10 10 -10 6 0 10 5 10 10 0 6 -4 10 -10 10 -5 0
-10 -4 -10 -10z"/>
<path d="M9015 6089 c-17 -6 -17 -8 -2 -8 9 -1 17 -7 17 -13 0 -9 3 -10 8 -2
4 6 14 13 22 16 11 3 9 6 -5 10 -11 3 -29 1 -40 -3z"/>
<path d="M3087 6054 c-9 -10 2 -24 19 -24 8 0 14 7 14 15 0 15 -21 21 -33 9z"/>
<path d="M4560 5950 c0 -5 5 -10 11 -10 5 0 7 5 4 10 -3 6 -8 10 -11 10 -2 0
-4 -4 -4 -10z"/>
<path d="M9045 5930 c-3 -6 1 -13 10 -16 19 -8 30 0 20 15 -8 14 -22 14 -30 1z"/>
<path d="M4443 5923 c9 -2 23 -2 30 0 6 3 -1 5 -18 5 -16 0 -22 -2 -12 -5z"/>
<path d="M3018 5913 c7 -3 16 -2 19 1 4 3 -2 6 -13 5 -11 0 -14 -3 -6 -6z"/>
<path d="M6720 5744 c0 -9 7 -14 17 -12 25 5 28 28 4 28 -12 0 -21 -6 -21 -16z"/>
<path d="M611 5594 c-20 -8 -68 -14 -119 -14 -85 0 -88 -1 -208 -60 -68 -33
-125 -64 -129 -70 -9 -14 0 -12 37 8 18 10 54 24 81 31 26 8 47 18 47 22 0 5
9 9 20 9 11 0 19 6 17 13 -1 9 15 11 63 10 46 -2 59 0 45 6 -13 7 0 8 42 4 46
-4 67 -2 79 8 9 8 33 19 53 24 25 7 31 13 20 17 -8 3 -30 0 -48 -8z"/>
<path d="M710 5468 c0 -4 16 -8 35 -8 19 0 35 2 35 4 0 2 -16 6 -35 8 -19 2
-35 0 -35 -4z"/>
<path d="M1133 5473 c-34 -4 -46 -23 -15 -23 27 0 43 -20 32 -41 -7 -12 -6
-20 1 -24 26 -17 51 -101 51 -170 l0 -70 15 35 c16 37 12 134 -7 186 -6 14
-11 45 -12 69 -1 35 -5 45 -17 43 -9 0 -31 -3 -48 -5z"/>
<path d="M110 5423 c-14 -9 -33 -28 -44 -40 -12 -16 -24 -22 -36 -18 -20 7
-37 -10 -17 -18 6 -2 28 -2 47 0 73 9 120 5 144 -11 14 -9 31 -16 38 -16 7 0
26 -11 42 -25 16 -14 37 -25 47 -25 10 0 51 -16 92 -35 79 -38 112 -43 120
-21 5 12 -23 26 -57 28 -3 0 -47 15 -98 32 -67 23 -93 37 -93 49 0 9 -3 16 -6
14 -3 -1 -13 4 -21 11 -9 7 -22 10 -30 7 -9 -4 -25 5 -39 19 -13 14 -32 26
-41 26 -9 0 -18 9 -20 20 -3 20 -4 20 -28 3z"/>
<path d="M7960 5278 c0 -4 8 -8 18 -8 11 0 29 -9 42 -20 28 -24 40 -18 16 9
-18 19 -76 34 -76 19z"/>
<path d="M4138 5243 c22 -9 13 -21 -23 -27 -21 -4 -35 -13 -35 -21 0 -18 12
-19 28 -3 9 9 12 8 12 -6 0 -10 -9 -20 -20 -23 -11 -3 -20 -9 -20 -14 0 -5
-12 -9 -26 -9 -14 0 -33 -4 -43 -9 -10 -6 -40 -12 -67 -15 -27 -2 -68 -7 -91
-10 -116 -16 -122 -16 -137 -1 -12 13 -22 13 -59 3 -38 -10 -53 -9 -94 4 -27
9 -62 14 -77 11 -28 -6 -27 -7 20 -24 27 -11 59 -19 72 -19 12 0 22 -3 22 -8
0 -10 68 -10 230 0 148 9 243 22 305 44 22 7 61 17 88 20 26 4 47 11 47 15 0
5 -6 9 -14 9 -7 0 -16 8 -19 19 -3 15 0 17 17 13 19 -5 18 -3 -6 23 -21 21
-35 26 -58 23 -16 -3 -30 -1 -30 4 0 4 -8 8 -17 7 -11 0 -13 -3 -5 -6z"/>
<path d="M0 5085 c0 -10 10 -15 30 -15 20 0 30 5 30 15 0 10 -10 15 -30 15
-20 0 -30 -5 -30 -15z"/>
<path d="M7995 5077 c-68 -49 -125 -100 -130 -118 -4 -10 -13 -19 -21 -19 -12
0 -34 -36 -34 -56 0 -2 15 -4 33 -4 38 0 57 -15 57 -45 0 -12 4 -25 9 -30 4
-6 16 -34 27 -62 10 -29 22 -53 26 -53 12 0 9 75 -4 88 -8 8 -8 15 2 27 8 10
17 12 23 6 12 -12 11 -78 -1 -110 -5 -16 -4 -54 5 -105 7 -45 13 -131 13 -193
1 -95 -2 -116 -21 -149 -13 -23 -24 -66 -28 -109 -7 -72 -19 -99 -83 -173 -31
-36 -39 -78 -12 -68 9 3 22 6 30 6 9 0 12 5 9 10 -3 6 1 13 9 16 9 3 16 11 16
18 0 6 9 17 20 24 12 7 25 24 30 37 10 27 36 25 43 -3 2 -10 3 3 3 28 0 25 6
88 12 140 6 52 12 154 12 225 0 72 7 175 16 230 9 55 17 161 18 235 2 111 5
142 21 173 17 33 17 39 5 47 -25 16 -73 10 -105 -13z m5 -171 c0 -3 -4 -8 -10
-11 -5 -3 -10 -1 -10 4 0 6 5 11 10 11 6 0 10 -2 10 -4z"/>
<path d="M8162 5078 c-26 -26 -14 -36 35 -27 54 10 63 17 43 29 -21 14 -64 12
-78 -2z"/>
<path d="M350 5046 l-35 -13 49 -6 c27 -4 55 -7 62 -7 20 0 17 17 -3 24 -10 3
-22 8 -28 10 -5 3 -26 -1 -45 -8z"/>
<path d="M1262 4985 c0 -16 2 -22 5 -12 2 9 2 23 0 30 -3 6 -5 -1 -5 -18z"/>
<path d="M8127 5003 c-11 -20 -17 -82 -7 -88 6 -4 10 5 10 22 0 16 5 34 12 41
9 9 9 15 1 23 -6 6 -13 7 -16 2z"/>
<path d="M1260 4936 c0 -12 13 -59 27 -96 4 -8 5 -20 4 -27 -1 -7 8 -17 19
-23 23 -12 26 -3 6 25 -7 11 -19 46 -25 78 -7 31 -17 57 -22 57 -5 0 -9 -6 -9
-14z"/>
<path d="M137 4764 c-9 -9 2 -137 13 -147 4 -5 7 25 6 66 -1 73 -6 94 -19 81z"/>
<path d="M1833 4225 c-3 -9 -3 -18 -1 -21 3 -3 8 4 11 16 6 23 -1 27 -10 5z"/>
<path d="M1928 4208 c6 -7 13 -30 17 -51 4 -21 18 -60 31 -85 13 -26 24 -50
24 -54 0 -4 18 -26 40 -50 22 -24 40 -46 40 -50 0 -5 4 -8 10 -8 15 0 -64 134
-94 159 -9 7 -16 26 -16 42 0 16 -4 29 -8 29 -5 0 -14 18 -21 40 -6 22 -17 40
-23 40 -7 0 -7 -4 0 -12z"/>
<path d="M4253 4025 c-23 -59 -25 -77 -13 -128 15 -61 44 -123 73 -154 26 -29
117 -63 165 -63 l37 1 -24 19 c-13 11 -29 20 -37 20 -8 0 -14 6 -14 13 0 8 -8
21 -19 31 -16 15 -20 15 -31 1 -11 -13 -16 -11 -41 16 -16 17 -31 46 -35 65
-3 19 -13 41 -20 49 -8 7 -14 29 -15 47 0 18 -3 51 -7 73 l-7 40 -12 -30z"/>
<path d="M4606 3975 c-16 -12 -17 -18 -8 -27 17 -17 15 -28 -4 -28 -8 0 -13
-4 -10 -8 3 -5 -18 -9 -46 -10 -41 -1 -56 -6 -79 -28 -40 -39 -40 -83 2 -106
16 -10 27 -13 24 -8 -3 6 5 10 18 10 24 0 57 -27 57 -48 0 -16 77 -59 125 -71
22 -5 55 -15 74 -23 34 -13 121 -93 121 -111 0 -5 7 -15 17 -22 20 -15 9 -35
-20 -35 -19 0 -20 -2 -6 -15 18 -18 49 -10 49 11 0 8 7 17 15 20 18 7 19 18 2
36 -24 24 -27 47 -7 58 24 13 30 13 30 0 0 -16 39 -55 46 -47 4 4 1 13 -6 22
-18 21 -9 27 47 30 26 2 82 6 123 9 41 3 143 8 225 11 210 8 240 23 286 147
26 70 35 174 18 213 l-13 30 -4 -30 c-2 -16 -12 -63 -23 -104 -10 -41 -19 -84
-19 -95 0 -16 -3 -17 -12 -8 -18 18 -26 15 -30 -10 -5 -37 -35 -33 -76 9 -45
47 -95 83 -115 83 -9 0 -17 5 -19 11 -6 17 -98 25 -108 9 -5 -8 -40 -14 -106
-16 -55 -2 -121 -6 -148 -10 -27 -3 -58 -2 -70 4 -81 39 -115 52 -134 52 -12
0 -22 5 -22 10 0 17 -53 59 -74 60 -27 0 -86 22 -86 32 0 12 -13 9 -34 -7z
m579 -155 c-3 -5 -10 -10 -16 -10 -5 0 -9 5 -9 10 0 6 7 10 16 10 8 0 12 -4 9
-10z m170 -137 c118 6 125 5 109 -11 -25 -25 -81 -41 -120 -35 -19 3 -53 0
-77 -7 -33 -9 -54 -9 -84 -1 -41 11 -71 36 -60 48 12 12 82 19 94 10 8 -5 66
-7 138 -4z m-459 -83 c8 0 14 -4 14 -10 0 -5 -5 -10 -11 -10 -15 0 -39 26 -31
34 4 4 8 2 10 -3 2 -6 10 -11 18 -11z"/>
<path d="M9208 3903 c7 -3 16 -2 19 1 4 3 -2 6 -13 5 -11 0 -14 -3 -6 -6z"/>
<path d="M2100 3891 c0 -6 5 -13 10 -16 6 -3 10 1 10 9 0 9 -4 16 -10 16 -5 0
-10 -4 -10 -9z"/>
<path d="M9000 3846 c0 -2 11 -6 25 -8 14 -3 25 -1 25 3 0 5 -11 9 -25 9 -14
0 -25 -2 -25 -4z"/>
<path d="M9270 3810 c0 -5 5 -10 11 -10 5 0 7 5 4 10 -3 6 -8 10 -11 10 -2 0
-4 -4 -4 -10z"/>
<path d="M9013 3785 c-8 -22 6 -33 17 -15 13 20 12 30 0 30 -6 0 -13 -7 -17
-15z"/>
<path d="M8954 3756 c-4 -16 -11 -23 -20 -19 -8 3 -14 -1 -14 -10 0 -21 27
-29 35 -10 4 13 8 14 17 5 16 -16 38 -15 38 2 0 7 -9 16 -20 19 -13 3 -18 10
-14 21 3 9 1 16 -5 16 -6 0 -13 -11 -17 -24z"/>
<path d="M9110 3770 c0 -5 5 -10 10 -10 6 0 10 5 10 10 0 6 -4 10 -10 10 -5 0
-10 -4 -10 -10z"/>
<path d="M8728 3763 c7 -3 16 -2 19 1 4 3 -2 6 -13 5 -11 0 -14 -3 -6 -6z"/>
<path d="M7959 3714 c-12 -32 -69 -251 -69 -267 0 -5 8 1 18 13 l18 22 37 -56
c20 -31 41 -56 45 -56 4 0 13 -14 21 -31 18 -42 37 -46 69 -16 15 14 36 27 47
30 16 4 15 5 -6 6 -14 0 -35 -8 -47 -19 -20 -19 -22 -19 -31 -2 -6 10 -7 29
-4 41 6 24 -20 61 -44 61 -7 0 -13 8 -13 17 0 9 -10 27 -21 39 -29 31 -34 96
-14 173 17 66 14 95 -6 45z"/>
<path d="M8642 3728 c3 -7 13 -15 24 -17 16 -3 17 -1 5 13 -16 19 -34 21 -29
4z"/>
<path d="M8758 3734 c-10 -18 -2 -98 10 -102 7 -2 12 -10 12 -18 0 -13 -28
-19 -71 -15 -9 1 -19 -5 -22 -12 -6 -17 42 -31 69 -20 10 4 20 0 26 -10 5 -10
18 -17 28 -17 10 0 22 -4 25 -10 10 -16 23 -12 30 10 9 28 35 26 32 -2 -1 -17
7 -27 33 -39 47 -23 80 -36 110 -45 14 -4 36 -16 50 -28 14 -11 55 -27 90 -34
36 -7 88 -22 115 -32 103 -40 172 -59 238 -66 l67 -7 -2 102 c-2 102 -2 103
-25 98 -15 -3 -27 2 -33 12 -8 14 -10 14 -11 1 -1 -8 -1 -18 -1 -21 1 -3 -9
-5 -21 -5 -15 1 -22 -5 -21 -16 1 -10 -2 -18 -6 -18 -7 0 -19 -25 -33 -72 -5
-14 -12 -15 -46 -6 -46 12 -51 22 -21 38 23 12 20 41 -6 71 -8 8 -14 21 -14
28 0 6 -9 31 -20 53 -11 23 -20 53 -20 66 0 21 -3 23 -25 18 -20 -5 -25 -3
-25 13 0 14 -5 19 -15 15 -20 -8 -19 -30 1 -38 9 -4 14 -9 11 -12 -7 -8 12
-28 34 -36 16 -6 17 -12 22 -138 2 -50 0 -55 -21 -58 -12 -2 -22 1 -22 7 0 6
-5 11 -11 11 -5 0 -24 10 -42 23 l-32 22 1 88 c1 48 5 95 8 104 4 9 1 20 -6
25 -22 13 -30 9 -23 -12 5 -14 2 -20 -9 -20 -9 0 -16 -7 -16 -15 0 -8 -4 -15
-10 -15 -5 0 -10 -20 -10 -45 0 -38 -5 -54 -27 -94 -5 -8 -62 21 -67 34 -8 22
21 89 43 99 32 14 27 37 -7 30 -19 -4 -32 -1 -41 10 -21 25 -26 19 -26 -26 0
-22 -5 -43 -10 -45 -13 -4 -36 71 -29 94 5 16 3 15 -11 -2 -10 -11 -19 -15
-22 -10 -37 86 -60 101 -108 69 -26 -17 -28 -17 -45 6 -9 12 -19 19 -22 14z
m140 -66 c7 -26 6 -36 -6 -45 -38 -31 -62 -2 -42 47 16 39 37 38 48 -2z m-101
-20 c-3 -8 -6 -5 -6 6 -1 11 2 17 5 13 3 -3 4 -12 1 -19z m783 -294 c0 -8 -4
-14 -9 -14 -11 0 -22 26 -14 34 9 9 23 -3 23 -20z"/>
<path d="M9481 3709 c8 -16 14 -18 22 -10 9 9 8 14 -3 21 -24 16 -31 11 -19
-11z"/>
<path d="M9220 3710 c0 -5 5 -10 10 -10 6 0 10 5 10 10 0 6 -4 10 -10 10 -5 0
-10 -4 -10 -10z"/>
<path d="M9556 3712 c-3 -5 -3 -19 -1 -31 5 -26 -14 -61 -32 -61 -9 0 -11 10
-6 31 6 29 5 30 -15 18 -11 -7 -23 -21 -25 -30 -3 -11 -13 -17 -26 -16 -21 1
-31 17 -11 17 6 0 10 10 10 22 0 19 -1 20 -18 5 -12 -11 -22 -13 -33 -6 -28
15 -43 -13 -19 -38 10 -12 25 -23 32 -25 10 -4 10 -10 1 -31 -10 -21 -9 -32 9
-68 18 -39 21 -41 31 -23 6 10 12 30 13 43 4 32 11 36 30 20 16 -13 16 -12 5
9 -15 29 -9 38 32 46 40 7 60 41 50 86 -6 32 -18 46 -27 32z m-89 -134 c-3 -8
-6 -5 -6 6 -1 11 2 17 5 13 3 -3 4 -12 1 -19z"/>
<path d="M8561 3674 c0 -11 3 -14 6 -6 3 7 2 16 -1 19 -3 4 -6 -2 -5 -13z"/>
<path d="M8465 3670 c4 -6 11 -8 16 -5 14 9 11 15 -7 15 -8 0 -12 -5 -9 -10z"/>
<path d="M8620 3580 c-7 -4 -9 -13 -6 -19 9 -14 18 -14 41 2 17 13 17 14 -2
19 -12 3 -26 2 -33 -2z"/>
<path d="M8560 3550 c0 -5 7 -10 15 -10 8 0 15 5 15 10 0 6 -7 10 -15 10 -8 0
-15 -4 -15 -10z"/>
<path d="M8058 3443 c7 -3 16 -2 19 1 4 3 -2 6 -13 5 -11 0 -14 -3 -6 -6z"/>
<path d="M2505 3343 c3 -39 10 -82 15 -95 11 -24 7 20 -11 122 -6 35 -7 29 -4
-27z"/>
<path d="M8160 3400 c0 -5 5 -10 10 -10 6 0 10 5 10 10 0 6 -4 10 -10 10 -5 0
-10 -4 -10 -10z"/>
<path d="M4977 3262 c-23 -25 -21 -32 8 -32 29 0 72 19 78 34 8 20 -68 18 -86
-2z"/>
<path d="M4595 3213 c-27 -8 -66 -18 -85 -23 -19 -5 -64 -25 -100 -44 -36 -20
-94 -50 -130 -67 -36 -18 -77 -38 -92 -46 -31 -16 -187 -32 -215 -23 -10 4
-48 4 -85 1 -80 -8 -115 -34 -125 -94 -6 -41 9 -49 47 -25 19 12 20 12 100
-26 14 -6 41 -34 60 -60 44 -62 175 -196 190 -196 7 0 25 -11 42 -25 16 -14
24 -25 18 -25 -6 0 -9 -4 -6 -9 4 -5 -7 -21 -24 -34 -28 -24 -28 -26 -10 -32
11 -3 29 -24 42 -46 12 -21 29 -39 37 -39 9 0 22 -9 29 -21 8 -13 19 -18 29
-15 16 6 43 -9 43 -25 0 -4 -10 -10 -22 -12 -13 -2 3 -5 34 -6 47 -1 62 -6 83
-26 14 -14 25 -30 25 -36 0 -5 11 -7 24 -3 14 3 31 2 38 -3 9 -5 0 -10 -27
-14 l-40 -6 42 -2 c40 -1 147 -43 159 -62 3 -5 18 -9 34 -9 15 0 49 -9 75 -20
26 -11 58 -20 71 -20 13 0 24 -4 24 -10 0 -14 258 0 299 16 18 8 49 14 67 14
19 0 34 3 34 8 0 4 19 6 43 4 31 -2 38 -1 27 7 -8 6 -10 11 -5 12 6 1 17 2 25
3 8 2 24 3 35 5 20 2 20 2 1 16 -11 8 -15 15 -9 15 6 0 18 3 27 6 11 4 16 1
16 -11 0 -11 7 -15 23 -13 16 2 23 11 25 31 3 28 32 39 32 12 0 -11 11 -15 40
-15 41 0 58 19 18 21 l-23 0 21 11 c12 5 24 22 27 37 4 19 15 30 41 39 20 7
36 18 36 23 0 18 41 49 65 49 18 0 25 5 25 20 0 17 -7 20 -49 20 -42 0 -48 3
-44 18 4 16 62 62 111 89 50 27 104 77 122 114 15 29 29 41 59 50 35 10 42 9
76 -14 21 -15 43 -23 49 -19 6 3 19 5 29 4 13 -3 17 4 17 28 0 18 -6 33 -15
36 -8 3 -17 15 -21 26 -11 34 -63 80 -89 76 -12 -1 -30 4 -39 11 -16 13 -45
20 -108 24 -16 1 -28 5 -28 9 0 4 -10 10 -22 14 -29 9 -132 74 -136 85 -2 5
-9 9 -16 9 -7 0 -21 8 -32 18 -30 26 -114 82 -123 82 -5 0 -11 4 -13 8 -4 12
-109 60 -180 83 -80 25 -126 24 -198 -5 -33 -14 -84 -32 -114 -40 l-55 -16
-104 50 c-115 55 -158 61 -252 33z m-248 -413 c4 -15 14 -20 41 -20 28 0 33
-3 24 -12 -16 -16 -15 -25 3 -32 17 -6 65 13 65 26 0 4 19 8 42 8 39 0 41 -1
22 -15 -17 -14 -10 -14 71 -9 130 10 144 9 161 -12 10 -12 17 -15 20 -8 4 9
16 9 47 0 23 -7 66 -11 96 -10 30 2 64 -2 75 -8 15 -8 21 -8 24 1 3 9 10 7 23
-5 10 -9 19 -20 19 -24 0 -16 -64 -20 -91 -6 -28 14 -29 13 -29 -8 0 -20 -8
-25 -57 -35 -31 -6 -64 -18 -74 -27 -15 -14 -23 -14 -56 -3 -21 7 -82 13 -136
14 -58 1 -103 7 -109 13 -7 7 -38 12 -70 12 -50 0 -58 3 -58 19 0 12 -9 21
-27 24 -16 4 -35 11 -43 16 -12 9 -12 12 2 28 22 26 12 43 -28 43 -38 0 -47
22 -16 39 28 17 53 13 59 -9z m943 -110 c17 0 29 -9 37 -25 11 -24 10 -25 -19
-25 -24 0 -29 3 -24 17 6 16 6 16 -12 0 -14 -12 -37 -17 -85 -17 l-67 0 0 31
0 31 73 -6 c39 -3 83 -5 97 -6z m107 -72 c-3 -8 -6 -5 -6 6 -1 11 2 17 5 13 3
-3 4 -12 1 -19z m-72 -8 c3 -5 1 -10 -4 -10 -6 0 -11 5 -11 10 0 6 2 10 4 10
3 0 8 -4 11 -10z m-415 -26 c0 -2 -7 -4 -15 -4 -8 0 -15 4 -15 10 0 5 7 7 15
4 8 -4 15 -8 15 -10z"/>
<path d="M2530 3196 c0 -14 4 -27 9 -30 4 -3 11 -23 14 -45 5 -38 85 -217 93
-208 4 4 -13 51 -41 112 -24 54 -44 109 -55 153 -12 47 -20 54 -20 18z"/>
<path d="M9425 3194 c-27 -7 -70 -14 -95 -15 -25 0 -54 -4 -65 -9 -18 -7 -18
-8 8 -15 36 -9 126 2 161 20 16 8 40 15 55 15 20 0 23 2 11 10 -18 11 -12 12
-75 -6z"/>
<path d="M9543 3203 c-14 -3 -23 -12 -23 -23 0 -10 -17 -47 -37 -82 -21 -35
-36 -67 -35 -72 2 -5 -6 -15 -16 -22 -13 -9 -21 -30 -25 -61 -3 -29 -12 -52
-23 -60 -10 -7 -12 -13 -6 -13 17 0 15 -35 -3 -50 -8 -6 -19 -9 -25 -5 -13 8
-13 35 0 35 6 0 10 8 10 17 0 13 -3 14 -12 5 -9 -9 -15 -9 -25 0 -10 8 -20 8
-40 -3 -21 -11 -27 -11 -30 -1 -5 14 -33 16 -33 2 0 -5 7 -10 15 -10 21 0 19
-11 -10 -42 -14 -15 -25 -32 -25 -38 0 -14 -53 -13 -68 2 -9 9 -12 9 -12 0 0
-7 5 -12 10 -12 6 0 9 -14 8 -31 l-2 -31 -58 6 c-32 3 -58 2 -58 -2 0 -14 15
-27 43 -40 24 -10 26 -15 17 -33 -6 -11 -17 -22 -23 -24 -107 -30 -127 -39
-142 -61 -8 -13 -23 -24 -33 -24 -22 1 -72 29 -52 30 8 0 24 14 35 30 11 17
30 33 43 36 12 4 22 10 22 14 0 5 13 11 29 15 26 5 40 26 41 58 0 13 -27 8
-40 -8 -7 -8 -26 -15 -43 -15 -19 0 -38 -9 -54 -27 -21 -22 -28 -24 -43 -15
-13 8 -27 8 -54 0 -32 -10 -38 -9 -55 11 -25 29 -21 39 39 81 27 19 50 41 50
48 0 10 52 18 83 13 23 -4 -3 25 -30 34 -19 6 -28 15 -26 25 3 12 2 12 -6 -1
-6 -9 -31 -22 -56 -29 -25 -7 -45 -17 -45 -21 0 -5 -6 -9 -14 -9 -8 0 -18 -9
-21 -20 -3 -11 -13 -20 -21 -20 -9 0 -23 -7 -31 -16 -14 -13 -14 -17 -2 -25
20 -12 -19 -41 -46 -33 -40 13 -78 9 -89 -8 -13 -22 -2 -35 39 -42 21 -5 24
-4 11 2 -22 9 -15 16 25 26 18 4 31 1 39 -9 14 -17 40 -20 40 -5 0 6 7 10 16
10 22 0 12 -24 -12 -28 -18 -3 -54 -16 -129 -47 -39 -16 -125 -25 -125 -13 0
5 -5 6 -11 2 -8 -4 -7 -9 2 -16 10 -7 8 -8 -8 -3 -32 9 -93 -20 -93 -44 0 -11
-4 -23 -10 -26 -5 -3 -10 -15 -10 -26 0 -29 30 -23 41 9 6 17 24 34 49 46 22
11 40 23 40 28 0 4 5 8 10 8 6 0 10 -7 10 -15 0 -8 -4 -15 -10 -15 -5 0 -10
-9 -10 -20 0 -11 6 -20 13 -20 8 0 9 -2 1 -8 -6 -4 -15 -23 -19 -42 -10 -47
-14 -53 -30 -40 -9 8 -16 4 -28 -13 -12 -18 -31 -25 -92 -36 -100 -17 -135
-29 -83 -30 20 -1 40 -6 44 -12 4 -7 -4 -10 -22 -8 -16 1 -37 -1 -46 -5 -9 -4
-25 -3 -35 2 -10 5 -29 8 -43 7 -14 -1 -47 -2 -73 -3 -42 -2 -47 -4 -34 -16
10 -10 47 -16 118 -20 57 -3 118 -8 135 -11 23 -5 33 -3 37 9 4 11 1 16 -11
16 -14 0 -15 2 -2 10 8 5 17 5 20 0 3 -5 42 -8 88 -7 45 1 82 0 82 -4 0 -33
328 -65 373 -37 12 8 33 18 47 21 14 4 54 34 89 67 35 33 70 60 76 60 7 0 16
10 19 23 6 20 7 20 17 5 5 -10 18 -18 28 -18 30 0 15 47 -17 53 -28 5 -62 -11
-62 -30 0 -8 -12 -13 -28 -13 -21 0 -32 -7 -40 -25 -6 -14 -17 -25 -24 -25 -7
0 -36 -16 -63 -36 -40 -28 -56 -34 -82 -30 -18 2 -33 1 -33 -5 0 -5 -58 -9
-135 -9 -83 0 -135 4 -135 10 0 6 7 10 15 10 8 0 15 5 15 10 0 14 -13 13 -28
-2 -9 -9 -15 -9 -24 0 -9 9 -8 12 8 13 68 3 132 2 221 -5 89 -7 105 -6 132 10
17 10 31 22 31 26 0 4 7 8 15 8 8 0 15 5 15 10 0 15 -19 12 -36 -5 -17 -17
-54 -20 -54 -5 0 5 12 13 28 16 15 4 39 15 54 25 14 11 32 19 38 19 7 0 27 13
44 30 84 81 133 110 179 110 20 -1 21 -1 4 -11 -18 -10 -18 -11 0 -25 10 -7
26 -14 36 -14 11 0 17 -8 17 -25 0 -19 -5 -25 -22 -25 -21 0 -21 0 -2 -14 19
-14 18 -16 -8 -66 -16 -29 -26 -56 -22 -61 3 -5 -9 -17 -26 -28 -29 -17 -30
-20 -15 -35 14 -14 14 -16 1 -16 -8 0 -18 5 -21 10 -4 6 -12 4 -21 -5 -9 -8
-23 -15 -32 -16 -11 0 -9 -4 7 -10 14 -5 31 -7 38 -4 8 2 30 -2 49 -10 28 -11
34 -19 34 -44 0 -33 18 -51 30 -31 12 19 32 1 28 -25 -1 -12 3 -30 11 -39 8
-9 11 -19 8 -22 -8 -8 -140 21 -257 56 -101 31 -158 42 -230 46 -25 1 -81 7
-125 12 -44 6 -82 8 -84 6 -5 -5 12 -10 99 -28 131 -27 183 -36 275 -50 129
-20 283 -65 316 -93 8 -7 23 -13 32 -13 9 0 18 -4 22 -9 3 -5 29 -17 58 -27
28 -9 57 -20 62 -24 22 -15 103 -33 168 -36 l67 -4 0 291 0 291 -24 19 c-17
13 -22 25 -18 41 4 18 2 20 -16 16 -12 -4 -22 -3 -22 2 0 10 59 22 71 14 5 -3
9 6 9 19 0 14 -7 28 -17 32 -17 6 -17 7 0 19 10 8 17 26 17 46 0 27 -3 31 -17
25 -10 -4 -33 -9 -50 -12 -37 -6 -43 -27 -13 -43 11 -6 20 -18 20 -26 0 -9 -9
-18 -20 -21 -23 -6 -25 -23 -8 -70 11 -31 10 -36 -13 -59 -14 -13 -41 -27 -61
-30 -49 -8 -62 15 -48 87 6 28 10 105 10 170 0 68 4 120 10 124 6 3 10 14 10
24 0 30 39 142 65 186 13 23 44 59 69 81 39 33 46 44 46 77 0 39 -3 40 -57 30z
m-175 -460 c-3 -42 -21 -51 -26 -15 -4 29 4 52 18 52 7 0 10 -15 8 -37z m-108
18 c0 -21 -13 -41 -26 -41 -11 0 -11 5 -2 25 11 24 28 34 28 16z m-66 -148
c-4 -16 -11 -34 -17 -40 -6 -9 -6 -13 2 -13 7 0 10 -4 7 -9 -4 -5 0 -11 6 -14
7 -2 0 -8 -15 -12 -32 -8 -49 1 -27 15 9 6 10 10 3 10 -9 0 -9 8 -1 33 19 57
54 82 42 30z m-409 7 c3 -5 1 -10 -4 -10 -6 0 -11 5 -11 10 0 6 2 10 4 10 3 0
8 -4 11 -10z m-140 -60 c3 -5 -3 -10 -14 -10 -12 0 -21 5 -21 10 0 6 6 10 14
10 8 0 18 -4 21 -10z m-75 -4 c0 -11 -19 -15 -25 -6 -3 5 1 10 9 10 9 0 16 -2
16 -4z m245 -27 c5 -7 -8 -8 -41 -3 -64 9 -68 14 -11 14 25 0 49 -5 52 -11z
m-205 -9 c0 -5 -7 -10 -15 -10 -8 0 -15 5 -15 10 0 6 7 10 15 10 8 0 15 -4 15
-10z m110 -11 c0 -12 -37 -12 -44 0 -7 11 14 20 32 13 6 -2 12 -8 12 -13z
m-220 -29 c0 -5 -7 -7 -15 -4 -9 4 -15 0 -15 -10 0 -9 -7 -16 -15 -16 -20 0
-19 6 7 29 20 20 38 20 38 1z m-64 -70 c0 -12 -7 -20 -17 -20 -12 0 -16 6 -12
20 3 11 11 20 17 20 6 0 12 -9 12 -20z m69 0 c4 -6 -6 -10 -22 -10 -22 0 -25
2 -13 10 19 12 27 12 35 0z"/>
<path d="M8661 3146 c-7 -8 -27 -18 -44 -22 -43 -9 -67 -26 -67 -46 0 -9 -6
-18 -12 -21 -10 -4 -10 -7 0 -18 18 -20 15 -31 -8 -24 -12 4 -26 2 -33 -3 -7
-5 -27 -12 -45 -15 -60 -12 -212 -72 -212 -84 0 -7 -9 -17 -19 -23 -11 -5 -22
-23 -26 -40 -4 -20 -13 -30 -25 -30 -10 0 -28 -13 -39 -29 -13 -18 -35 -32
-58 -38 -42 -10 -57 -33 -21 -33 31 1 108 36 108 51 0 6 7 8 16 5 9 -3 44 -2
78 4 34 5 117 12 183 16 l122 5 -8 -28 c-6 -21 -13 -27 -29 -26 -14 2 -22 -3
-22 -12 0 -11 11 -15 40 -15 37 0 40 2 30 19 -15 29 -12 41 10 41 22 0 40 34
40 76 0 27 -11 29 -94 18 -37 -5 -44 -9 -35 -20 18 -22 2 -32 -48 -29 -91 4
-94 5 -87 16 3 6 15 9 25 6 11 -3 19 -1 19 4 0 5 -14 9 -32 9 -25 0 -29 3 -20
12 7 7 30 12 52 11 22 -1 40 2 40 8 0 5 9 9 20 9 15 0 20 7 20 24 0 16 -7 27
-20 31 -11 3 -20 11 -20 16 0 14 14 11 37 -10 23 -21 73 -22 98 -1 14 11 18
11 25 1 6 -10 16 -11 41 -3 40 11 79 13 79 4 0 -4 18 -7 39 -7 22 -1 38 2 35
6 -2 4 5 5 16 2 13 -3 20 -14 20 -29 0 -20 5 -24 28 -24 16 0 31 3 35 6 8 9
-15 44 -30 44 -7 0 -24 12 -38 26 -21 21 -29 23 -40 14 -8 -7 -21 -10 -30 -7
-8 4 -17 2 -19 -2 -9 -13 -92 19 -116 44 -30 32 -18 45 39 45 37 0 52 5 69 23
22 23 22 24 4 40 -23 21 -56 22 -71 3z m-74 -113 c7 -15 11 -29 8 -31 -9 -9
-35 20 -35 39 0 27 13 23 27 -8z"/>
<path d="M8772 3104 c1 -9 9 -19 16 -22 9 -3 13 2 10 14 -1 9 -9 19 -16 22 -9
3 -13 -2 -10 -14z"/>
<path d="M8820 3110 c0 -5 3 -10 8 -10 4 0 15 -14 24 -30 9 -17 25 -30 35 -30
15 0 13 5 -10 25 -15 14 -27 32 -27 40 0 8 -7 15 -15 15 -8 0 -15 -4 -15 -10z"/>
<path d="M8735 3050 c-3 -5 -13 -6 -22 -3 -11 4 -14 3 -9 -6 4 -6 16 -9 27 -6
11 4 26 1 34 -5 18 -15 20 1 3 18 -14 14 -25 15 -33 2z"/>
<path d="M8668 3033 c7 -3 16 -2 19 1 4 3 -2 6 -13 5 -11 0 -14 -3 -6 -6z"/>
<path d="M8985 3011 c-8 -25 -14 -26 -43 -5 -33 23 -39 9 -8 -19 14 -13 26
-30 26 -37 0 -10 5 -8 18 4 9 9 25 22 35 29 18 12 18 13 -1 31 -19 17 -20 17
-27 -3z"/>
<path d="M8145 2908 c-11 -7 -26 -17 -32 -24 -7 -7 -18 -14 -25 -17 -7 -2 -10
-8 -5 -12 8 -10 54 12 80 37 29 29 19 37 -18 16z"/>
<path d="M8695 2910 c4 -6 1 -17 -5 -25 -10 -12 -9 -15 8 -15 11 0 25 7 33 16
10 13 10 17 -2 25 -19 12 -42 11 -34 -1z"/>
<path d="M8984 2893 c-9 -15 -15 -16 -38 -5 -33 15 -66 1 -66 -29 0 -11 4 -18
9 -15 16 10 40 -5 34 -21 -5 -13 1 -14 36 -8 24 4 47 3 54 -3 7 -5 26 -9 42
-8 44 2 35 24 -17 40 -9 2 -19 18 -23 35 -8 35 -15 39 -31 14z m-24 -53 c0 -5
-4 -10 -10 -10 -5 0 -10 5 -10 10 0 6 5 10 10 10 6 0 10 -4 10 -10z"/>
<path d="M7785 2890 c-3 -5 -2 -10 4 -10 5 0 13 5 16 10 3 6 2 10 -4 10 -5 0
-13 -4 -16 -10z"/>
<path d="M2680 2843 c0 -19 11 -43 21 -43 13 0 11 14 -6 36 -8 10 -15 14 -15
7z"/>
<path d="M9510 2799 c0 -5 5 -7 10 -4 6 3 10 8 10 11 0 2 -4 4 -10 4 -5 0 -10
-5 -10 -11z"/>
<path d="M8425 2741 c-3 -5 -1 -12 5 -16 5 -3 10 1 10 9 0 18 -6 21 -15 7z"/>
<path d="M8460 2680 c0 -5 5 -10 10 -10 6 0 10 5 10 10 0 6 -4 10 -10 10 -5 0
-10 -4 -10 -10z"/>
<path d="M2338 2628 c7 -9 28 -18 47 -20 37 -4 39 7 3 15 -13 2 -32 8 -43 13
-17 7 -18 6 -7 -8z"/>
<path d="M8465 2630 c3 -5 8 -10 11 -10 2 0 4 5 4 10 0 6 -5 10 -11 10 -5 0
-7 -4 -4 -10z"/>
<path d="M8160 2520 c0 -5 10 -10 23 -10 18 0 19 2 7 10 -19 13 -30 13 -30 0z"/>
<path d="M2735 2440 c-3 -5 1 -10 9 -10 8 0 18 5 21 10 3 6 -1 10 -9 10 -8 0
-18 -4 -21 -10z"/>
<path d="M2383 2409 c3 -9 0 -22 -6 -28 -12 -12 2 -15 20 -3 8 5 7 12 -4 27
-11 14 -14 15 -10 4z"/>
<path d="M2535 2360 c3 -5 8 -10 11 -10 2 0 4 5 4 10 0 6 -5 10 -11 10 -5 0
-7 -4 -4 -10z"/>
<path d="M2945 2320 c-16 -4 -46 -15 -65 -24 l-35 -16 75 4 c56 3 76 8 78 19
4 19 -16 25 -53 17z"/>
<path d="M2570 2291 c0 -12 9 -20 28 -24 36 -7 38 -3 13 22 -26 26 -41 27 -41
2z"/>
<path d="M2 2128 c1 -90 3 -143 4 -118 2 25 8 82 15 126 9 70 15 86 40 110 33
32 25 44 -28 44 l-33 0 2 -162z"/>
<path d="M2438 2213 c7 -3 16 -2 19 1 4 3 -2 6 -13 5 -11 0 -14 -3 -6 -6z"/>
<path d="M8625 2190 c11 -5 27 -9 35 -9 9 0 8 4 -5 9 -11 5 -27 9 -35 9 -9 0
-8 -4 5 -9z"/>
<path d="M8740 2190 c-11 -7 -5 -10 23 -10 23 0 36 4 32 10 -8 13 -35 13 -55
0z"/>
<path d="M6910 2010 c0 -8 -9 -10 -25 -6 -14 4 -25 2 -25 -4 0 -5 -13 -7 -30
-3 -22 4 -30 2 -30 -8 0 -16 68 -34 166 -45 45 -5 70 -2 95 9 19 8 41 18 49
21 8 3 -6 4 -32 1 -52 -5 -109 10 -105 28 1 7 -13 13 -30 15 -20 2 -33 -1 -33
-8z m-13 -26 c-3 -3 -12 -4 -19 -1 -8 3 -5 6 6 6 11 1 17 -2 13 -5z"/>
<path d="M7257 1978 c-7 -4 12 -8 41 -8 28 0 52 2 52 4 0 8 -81 11 -93 4z"/>
<path d="M7360 1970 c0 -5 9 -10 20 -10 11 0 20 5 20 10 0 6 -9 10 -20 10 -11
0 -20 -4 -20 -10z"/>
<path d="M6783 1857 c-5 -9 7 -13 67 -26 50 -11 161 6 167 25 4 13 -226 14
-234 1z"/>
<path d="M9440 1820 c0 -15 7 -20 29 -20 42 0 47 16 9 29 -40 14 -38 14 -38
-9z"/>
<path d="M9510 1741 c25 -15 90 -24 90 -13 0 14 -25 22 -68 22 -26 -1 -33 -3
-22 -9z"/>
<path d="M2840 1660 c-18 -12 -2 -12 25 0 13 6 15 9 5 9 -8 0 -22 -4 -30 -9z"/>
<path d="M9534 1503 c2 -10 6 -17 9 -15 4 1 18 2 32 2 14 0 25 5 25 11 0 6 -8
8 -19 4 -11 -3 -22 -1 -26 5 -10 16 -23 12 -21 -7z"/>
<path d="M9485 1430 c3 -5 8 -10 11 -10 2 0 4 5 4 10 0 6 -5 10 -11 10 -5 0
-7 -4 -4 -10z"/>
<path d="M1 973 l-1 -453 45 0 c57 0 175 -22 175 -32 0 -5 11 -8 25 -8 37 0
213 -88 270 -135 26 -21 27 -24 10 -25 -17 0 -17 -2 -5 -10 12 -8 13 -13 3
-29 -10 -16 -9 -20 5 -26 9 -3 12 -9 7 -13 -6 -4 -11 -23 -11 -42 -1 -19 -6
-36 -12 -38 -6 -2 -8 -10 -5 -18 3 -8 -7 -20 -26 -31 -17 -10 -31 -21 -31 -25
0 -14 -24 -8 -47 11 -13 11 -23 24 -23 29 0 6 -9 8 -20 5 -11 -3 -20 0 -20 6
0 6 -6 11 -13 11 -7 0 -35 20 -61 45 -27 25 -58 45 -70 45 -24 0 -29 5 85 -96
103 -91 119 -104 145 -110 22 -6 54 13 54 33 1 21 117 91 180 108 45 12 195
79 209 93 21 21 -3 41 -29 24 -13 -8 -26 -9 -37 -3 -10 4 -49 16 -86 25 -56
13 -305 126 -342 156 -5 4 -28 13 -50 20 -42 13 -98 35 -127 51 -10 5 -26 9
-35 9 -10 1 -33 9 -52 19 l-34 18 -2 174 c-2 166 -5 210 -39 484 -29 237 -34
199 -35 -272z m774 -713 c3 -5 -4 -12 -17 -14 -77 -16 -91 -13 -66 12 14 14
74 16 83 2z m-170 -60 c-3 -5 -13 -10 -21 -10 -8 0 -12 5 -9 10 3 6 13 10 21
10 8 0 12 -4 9 -10z"/>
<path d="M9520 1410 c0 -13 11 -13 30 0 12 8 11 10 -7 10 -13 0 -23 -4 -23
-10z"/>
<path d="M2254 1078 c-52 -55 -101 -119 -143 -186 -25 -39 -32 -58 -26 -79 8
-33 -10 -77 -38 -92 -26 -14 -84 -183 -97 -283 -4 -35 -13 -83 -19 -108 -14
-57 -51 -282 -51 -310 0 -18 6 -20 59 -20 l58 0 7 147 c4 82 14 189 22 238 18
113 54 267 66 279 4 6 8 18 8 28 0 10 5 18 10 18 6 0 10 34 10 81 l0 81 29 -4
c29 -4 32 0 84 96 47 86 75 156 64 156 -1 0 -21 -19 -43 -42z"/>
<path d="M7745 849 c-99 -5 -155 -19 -155 -38 0 -6 12 -16 28 -23 19 -10 26
-21 25 -36 -2 -17 7 -26 43 -41 51 -23 280 -81 318 -81 14 0 28 -5 32 -11 3
-6 16 -9 29 -7 12 3 29 -1 38 -7 18 -13 77 -8 77 6 0 5 -19 10 -42 11 -65 2
-68 2 -76 14 -4 5 -26 16 -50 24 -71 23 -62 33 22 25 43 -4 91 -11 108 -16 37
-10 80 -2 75 15 -2 6 -26 19 -53 28 -30 10 -41 17 -26 17 12 1 22 7 22 15 0
13 -36 26 -90 31 -14 2 -41 7 -60 13 l-35 9 55 7 c30 4 78 2 105 -3 74 -15
197 -49 221 -62 12 -6 30 -9 40 -5 11 3 150 10 309 15 364 12 556 1 700 -39
17 -5 67 -11 113 -15 70 -6 82 -5 82 8 0 20 -17 26 -58 19 -18 -3 -57 0 -85 6
-29 6 -77 16 -107 22 -196 42 -201 43 -560 42 -339 0 -428 5 -590 37 -113 22
-287 30 -455 20z m365 -104 c0 -8 -7 -15 -15 -15 -8 0 -15 7 -15 15 0 8 7 15
15 15 8 0 15 -7 15 -15z"/>
<path d="M1905 751 c-3 -5 -1 -12 5 -16 12 -7 30 2 30 16 0 12 -27 12 -35 0z"/>
<path d="M1740 660 c-47 -33 -89 -60 -95 -60 -13 -1 -73 -50 -61 -50 14 0 109
52 147 82 19 15 57 38 83 51 36 18 44 26 31 31 -9 3 -17 6 -18 5 -1 0 -40 -27
-87 -59z"/>
<path d="M8990 670 l-35 -6 37 -16 c20 -9 74 -21 120 -26 45 -6 84 -15 86 -21
2 -7 11 -6 25 4 12 8 29 15 39 15 10 0 18 5 18 10 0 6 9 10 21 10 11 0 17 5
14 10 -4 6 -21 8 -40 4 -18 -3 -68 -1 -111 6 -113 16 -135 17 -174 10z"/>
<path d="M9440 661 c0 -6 5 -11 10 -11 6 0 10 -4 10 -10 0 -5 -15 -7 -32 -5
-30 5 -31 5 -10 -6 33 -18 27 -29 -18 -29 -22 0 -40 5 -40 10 0 6 -18 10 -40
10 -32 0 -40 -4 -40 -18 0 -10 -5 -23 -12 -30 -9 -9 -9 -12 0 -12 7 0 12 -7
12 -15 0 -17 -32 -20 -61 -5 -16 9 -19 7 -19 -9 0 -22 37 -32 113 -31 l47 1 0
-51 c0 -33 -4 -50 -12 -50 -9 0 -8 -4 2 -10 20 -13 60 -13 60 0 0 6 15 10 33
10 22 0 36 7 45 21 20 32 53 21 79 -28 21 -41 21 -43 3 -43 -10 0 -26 10 -34
22 -9 13 -16 17 -16 9 0 -11 -12 -13 -55 -8 l-55 6 0 -30 c0 -28 2 -29 45 -29
35 0 45 -4 45 -16 0 -11 5 -14 16 -10 8 3 28 -1 44 -9 16 -8 31 -15 35 -15 3
0 5 36 5 80 0 72 -2 82 -26 105 -16 17 -23 32 -19 44 4 12 0 21 -12 25 -10 4
-19 3 -21 -3 -2 -6 -21 1 -43 14 -21 14 -49 25 -61 26 -55 2 30 17 105 18 l77
1 0 45 c0 25 -3 45 -6 45 -3 0 -19 -8 -35 -17 -30 -18 -31 -17 -101 12 -11 4
-18 3 -18 -4z m138 -40 c3 -8 -1 -12 -9 -9 -7 2 -15 10 -17 17 -3 8 1 12 9 9
7 -2 15 -10 17 -17z m-100 -153 c-20 -30 -38 -34 -38 -10 0 18 12 27 44 31 5
0 2 -9 -6 -21z"/>
<path d="M9368 643 c7 -3 16 -2 19 1 4 3 -2 6 -13 5 -11 0 -14 -3 -6 -6z"/>
<path d="M8170 590 c-38 -7 -33 -11 43 -30 26 -7 50 -17 53 -21 3 -5 12 -9 21
-9 10 0 6 7 -13 22 -16 13 -35 22 -44 21 -9 -2 -10 0 -2 3 6 3 12 10 12 15 0
10 -17 10 -70 -1z"/>
<path d="M9020 570 c0 -5 5 -10 10 -10 6 0 10 -13 10 -30 0 -28 2 -30 40 -30
22 0 40 -4 40 -10 0 -5 11 -10 25 -10 22 0 25 4 25 39 0 30 4 40 18 43 9 2
-20 4 -65 3 -46 0 -83 3 -83 7 0 5 -4 8 -10 8 -5 0 -10 -4 -10 -10z"/>
<path d="M1550 540 c-13 -8 -12 -10 3 -10 9 0 17 5 17 10 0 12 -1 12 -20 0z"/>
<path d="M9580 525 c-12 -14 -12 -18 1 -25 10 -7 15 -5 17 5 6 28 -3 38 -18
20z"/>
<path d="M8317 519 c7 -7 15 -10 18 -7 3 3 -2 9 -12 12 -14 6 -15 5 -6 -5z"/>
<path d="M9280 469 c0 -8 -13 -9 -40 -5 -30 5 -40 3 -40 -8 0 -8 16 -16 40
-20 39 -6 52 -20 28 -29 -7 -3 -3 -6 10 -6 19 -1 22 4 22 39 0 22 -4 40 -10
40 -5 0 -10 -5 -10 -11z"/>
<path d="M8465 460 c3 -5 8 -10 11 -10 2 0 4 5 4 10 0 6 -5 10 -11 10 -5 0 -7
-4 -4 -10z"/>
<path d="M8495 460 c-6 -10 70 -34 88 -27 7 3 -1 8 -18 11 -16 4 -38 11 -47
16 -10 6 -19 6 -23 0z"/>
<path d="M7621 404 c0 -11 3 -14 6 -6 3 7 2 16 -1 19 -3 4 -6 -2 -5 -13z"/>
<path d="M8665 410 c-16 -6 -14 -8 15 -12 41 -7 49 -3 23 10 -10 5 -27 6 -38
2z"/>
<path d="M8768 383 c6 -2 18 -2 25 0 6 3 1 5 -13 5 -14 0 -19 -2 -12 -5z"/>
<path d="M8870 369 c0 -6 119 -33 215 -49 114 -18 179 -31 230 -46 27 -8 68
-20 90 -27 22 -6 69 -24 103 -39 82 -36 92 -36 92 3 0 18 -4 28 -10 24 -10 -6
-134 30 -155 45 -10 7 -117 28 -145 28 -23 0 -141 22 -176 33 -17 5 -38 9 -47
9 -8 0 -28 5 -44 11 -29 12 -153 18 -153 8z"/>
<path d="M7634 343 c5 -23 25 -284 26 -330 0 -8 13 -13 30 -13 35 0 36 6 19
109 -20 123 -40 211 -50 216 -5 4 -9 15 -9 26 0 10 -5 19 -11 19 -6 0 -8 -11
-5 -27z"/>
<path d="M480 330 c0 -5 5 -10 11 -10 5 0 7 5 4 10 -3 6 -8 10 -11 10 -2 0 -4
-4 -4 -10z"/>
<path d="M120 280 c0 -7 24 -20 36 -20 13 0 1 19 -16 23 -11 3 -20 2 -20 -3z"/>
<path d="M300 280 c0 -5 4 -10 9 -10 15 0 20 -40 9 -71 -12 -33 -11 -34 18
-43 17 -5 20 -2 20 16 -1 19 4 23 33 24 21 1 39 8 48 19 17 25 17 31 -7 55
-15 15 -33 20 -75 20 -30 0 -55 -4 -55 -10z"/>
<path d="M286 222 c-3 -6 -1 -14 5 -17 15 -10 25 3 12 16 -7 7 -13 7 -17 1z"/>
</g>
</svg>
